<?xml version="1.0" encoding="UTF-8"?>
<svg id="Calque_1" xmlns="http://www.w3.org/2000/svg" version="1.1" viewBox="0 0 910.66 666.6">
  <!-- Generator: Adobe Illustrator 30.6.0, SVG Export Plug-In . SVG Version: 2.1.4 Build 27)  -->
  <defs>
    <style>
      .st0 {
        fill: #e3ded8;
      }

      .st1 {
        fill: lime;
      }

      .st2 {
        fill: #280f37;
      }

      .st3 {
        fill: #c880ea;
      }
    </style>
  </defs>
  <rect class="st2" width="910.66" height="666.6" rx="9.99" ry="9.99"/>
  <g>
    <path class="st0" d="M152.31,170.27h16.59l69.96,179.59,69.13-179.59h16.87v215.62h-21.29v-186.01l-63.04,163.67h-4.15l-63.04-163.67v186.01h-21.01v-215.62Z"/>
    <path class="st0" d="M353.88,170.27h98.16v22.62h-1.38c-14.1-14.24-29.59-18.15-53.92-18.15h-21.29v91.05h71.34v5.31h-71.34v110.04h19.36c22.95,0,46.45-4.75,58.34-22.62h1.38v27.37h-100.65v-215.62Z"/>
    <path class="st0" d="M470.29,170.27h42.58c48.11,0,66.64,16.76,66.64,41.62,0,22.34-17.97,41.34-63.6,44.69,31.25,6.42,56.68,34.35,70.51,97.2l6.91,32.12h-24.88c-11.34-75.69-22.4-127.36-69.13-127.36l-7.47-.28v127.64h-21.57v-215.62ZM499.32,253.78c39.82.28,59.72-16.48,59.72-41.62s-15.21-36.59-46.73-36.59h-20.46v78.2h7.47Z"/>
    <path class="st0" d="M591.67,280.03c0-66.19,27.93-113.95,76.59-113.95,20.46,0,37.6,8.1,47.01,14.52v44.69h-3.04c-5.81-31.56-21.57-53.35-47.28-53.35-35.39,0-51.98,38.82-51.98,95.24,0,63.4,20.18,103.62,51.98,103.62,29.03,0,42.3-36.59,49.77-82.95h3.87c-8.02,55.3-25.16,99.43-63.04,99.43s-63.87-43.85-63.87-107.25Z"/>
    <path class="st0" d="M734.35,170.27h21.57v215.62h-21.57v-215.62Z"/>
  </g>
  <g>
    <path class="st0" d="M181.45,451.01c-1.82,11-7.26,20.98-16.54,20.98-9.88,0-17.04-10.9-17.04-29.64s7.87-29.95,17.75-29.95c8.57,0,14.02,8.46,15.83,17.93v-39.22h7.36v80.48h-7.36v-20.58ZM168.04,467.31c8.57,0,13.11-12.12,13.11-27.1v-.2c0-14.16-5.24-23.23-13.01-23.23-8.27,0-12.71,11-12.71,25.06s4.54,25.47,12.61,25.47Z"/>
    <path class="st0" d="M200.41,443.78c0-18.64,8.57-31.58,20.07-31.58,9.88,0,15.73,7.44,17.04,20.78h-29.85c-.2,2.04-.3,4.18-.3,6.52,0,16.81,5.04,26.89,14.12,26.89,8.17,0,13.41-8.46,15.53-21.19h1.21c-2.02,14.06-7.26,26.79-18.86,26.79s-18.96-11.31-18.96-28.22ZM230.46,431.15c-.71-10.08-4.34-17.01-10.59-17.01s-10.69,6.11-12,17.01h22.59Z"/>
    <path class="st0" d="M264.24,413.22h7.97l14.42,48.69,13.92-48.69h3.13l-18.46,58.88h-2.22l-18.76-58.88Z"/>
    <path class="st0" d="M307.51,442.86c0-16.91,9.18-30.56,21.78-30.56s20.47,12.43,20.47,29.03-9.18,30.87-21.78,30.87-20.47-12.63-20.47-29.34ZM328.58,470.37c8.77,0,13.41-11.82,13.41-26.69,0-16.5-4.03-29.64-13.31-29.64-8.77,0-13.41,11.71-13.41,26.59,0,16.4,4.03,29.75,13.31,29.75Z"/>
    <path class="st0" d="M361.16,459.06v-42.89h-4.03v-.81l10.89-15.28h.6v13.14h11.8v2.95h-11.8v42.38c0,4.58.91,7.33,3.63,7.33,4.84,0,8.27-8.45,10.39-15.89h1.11c-2.22,9.98-6.55,22-14.72,22-5.65,0-7.87-4.79-7.87-12.94Z"/>
    <path class="st0" d="M392.11,413.22h7.46v21.7c3.23-15.79,11.19-22.41,19.67-22.41v7.44c-1.41-.31-2.52-.51-3.73-.51-11.09,0-15.93,10.9-15.93,25.16v27h-7.46v-58.37Z"/>
    <path class="st0" d="M422.17,443.78c0-18.64,8.57-31.58,20.07-31.58,9.88,0,15.73,7.44,17.04,20.78h-29.85c-.2,2.04-.3,4.18-.3,6.52,0,16.81,5.04,26.89,14.12,26.89,8.17,0,13.41-8.46,15.53-21.19h1.21c-2.02,14.06-7.26,26.79-18.86,26.79s-18.96-11.31-18.96-28.22ZM452.22,431.15c-.71-10.08-4.34-17.01-10.59-17.01s-10.69,6.11-12,17.01h22.59Z"/>
  </g>
  <path class="st3" d="M757.62,467.01c0-2.95,2.12-5.09,5.14-5.09,2.82,0,5.04,2.14,5.04,5.09s-2.22,5.09-5.04,5.09c-3.03,0-5.14-2.14-5.14-5.09Z"/>
  <g>
    <path class="st3" d="M334.63,603.34c-1-.52-1.78-1.25-2.34-2.2-.56-.94-.84-2.01-.84-3.21s.28-2.25.84-3.18c.56-.93,1.33-1.65,2.33-2.16.99-.52,2.12-.77,3.38-.77.9,0,1.75.16,2.55.48s1.47.76,2.01,1.33c.54.57.9,1.21,1.07,1.92l-3.16.61c-.15-.44-.46-.8-.93-1.09-.47-.28-.99-.43-1.56-.43s-1.12.14-1.59.42c-.47.28-.84.67-1.11,1.17-.27.5-.4,1.07-.4,1.7s.14,1.21.42,1.72c.28.51.66.91,1.15,1.19.49.29,1.04.43,1.66.43.49,0,.94-.09,1.36-.28s.75-.45,1.01-.78c.25-.33.4-.7.43-1.11l-3.96-.02v-2.04h7.24c.03.3.05.59.05.87,0,1.22-.26,2.29-.78,3.23-.52.94-1.26,1.67-2.21,2.19-.95.52-2.04.78-3.26.78s-2.37-.26-3.37-.78Z"/>
    <path class="st3" d="M354.12,603.83h-8.46v-11.77h3.43v8.81h5.03v2.96Z"/>
    <path class="st3" d="M364.55,603.83h-9.13v-11.77h8.97v2.73h-5.65v1.97h5.34v2.25h-5.34v2.09h5.81v2.73Z"/>
    <path class="st3" d="M375.08,603.83h-9.13v-11.77h8.97v2.73h-5.65v1.97h5.34v2.25h-5.34v2.09h5.81v2.73Z"/>
    <path class="st3" d="M376.48,603.83v-11.77h4.75c1.32,0,2.49.24,3.5.73,1.01.49,1.79,1.18,2.34,2.07s.83,1.92.83,3.08-.28,2.19-.83,3.08-1.33,1.58-2.34,2.07c-1.01.49-2.18.73-3.5.73h-4.75ZM381.24,601.21c.98,0,1.76-.3,2.35-.89.59-.59.89-1.39.89-2.38s-.3-1.79-.89-2.38c-.59-.59-1.38-.89-2.35-.89h-1.43v6.54h1.43Z"/>
    <path class="st3" d="M398.46,603.83h-9.13v-11.77h8.97v2.73h-5.65v1.97h5.34v2.25h-5.34v2.09h5.81v2.73Z"/>
    <path class="st3" d="M403.07,603.83h-3.21v-11.77h3.68l3.83,7.3h.16v-7.3h3.21v11.77h-3.68l-3.83-7.28h-.16v7.28Z"/>
    <path class="st3" d="M412.4,603.54c-.32-.31-.48-.71-.48-1.19s.16-.88.48-1.19c.32-.31.73-.47,1.23-.47s.91.16,1.23.47c.32.31.48.71.48,1.19s-.16.88-.48,1.19c-.32.31-.73.47-1.23.47s-.91-.16-1.23-.47Z"/>
    <path class="st3" d="M418.87,603.3c-.97-.51-1.72-1.24-2.26-2.17-.54-.93-.81-2-.81-3.19s.27-2.25.81-3.18c.54-.93,1.3-1.65,2.26-2.16s2.06-.77,3.27-.77c1.03,0,1.98.19,2.84.58.86.39,1.57.93,2.11,1.64.54.7.87,1.51.99,2.42l-3.19.34c-.13-.62-.45-1.14-.94-1.54-.5-.41-1.07-.61-1.71-.61-.59,0-1.11.14-1.56.41-.46.27-.81.66-1.07,1.16-.25.5-.38,1.07-.38,1.72s.13,1.22.38,1.72.61.88,1.06,1.16c.45.27.97.41,1.55.41.64,0,1.21-.2,1.72-.6.5-.4.83-.91.97-1.52l3.19.38c-.1.9-.42,1.7-.95,2.39s-1.24,1.24-2.12,1.62c-.87.38-1.84.58-2.89.58-1.21,0-2.31-.26-3.27-.77Z"/>
    <path class="st3" d="M432.19,603.32c-.99-.5-1.76-1.22-2.3-2.14s-.82-2-.82-3.24.27-2.32.82-3.24,1.32-1.63,2.3-2.13,2.13-.75,3.42-.75,2.43.25,3.42.75,1.75,1.21,2.29,2.14c.54.93.81,2,.81,3.23s-.27,2.32-.81,3.24c-.54.92-1.31,1.63-2.29,2.14s-2.13.76-3.42.76-2.43-.25-3.42-.76ZM437.22,600.82c.47-.27.83-.66,1.09-1.15.26-.49.39-1.07.39-1.73s-.13-1.22-.39-1.72c-.26-.5-.62-.89-1.09-1.16-.47-.27-1-.41-1.61-.41s-1.15.14-1.62.41c-.47.27-.84.66-1.1,1.16-.26.5-.39,1.07-.39,1.72s.13,1.23.39,1.73c.26.49.63.88,1.1,1.15.47.27,1.01.41,1.62.41s1.15-.14,1.61-.41Z"/>
    <path class="st3" d="M446.87,603.83h-3.32v-11.77h4.54l2.65,7.63h.16l2.59-7.63h4.62v11.77h-3.32v-7.07h-.16l-2.47,7.07h-2.65l-2.47-7.05h-.16v7.05Z"/>
    <path class="st3" d="M472.61,603.83h-8.04v-11.59h7.88v1.32h-6.38v3.62h5.73v1.32h-5.73v4.03h6.54v1.32ZM469.38,590.87h-1.61l1.71-1.86h1.68l-1.77,1.86Z"/>
    <path class="st3" d="M482.23,603.83h-7.26v-11.59h1.48v10.28h5.78v1.32Z"/>
    <path class="st3" d="M485.95,603.61c-.72-.42-1.28-1-1.68-1.73-.41-.74-.61-1.58-.61-2.51v-7.14h1.5v7.14c0,.68.14,1.29.42,1.83.28.54.66.96,1.15,1.27s1.04.45,1.66.45,1.17-.15,1.66-.45.87-.72,1.14-1.27c.27-.54.41-1.15.41-1.83v-7.14h1.48v7.14c0,.93-.2,1.77-.6,2.51-.4.74-.96,1.32-1.67,1.73-.71.42-1.52.62-2.42.62s-1.71-.21-2.43-.62Z"/>
    <path class="st3" d="M501.8,603.73c-.73-.33-1.29-.82-1.69-1.45-.39-.63-.59-1.37-.59-2.23h1.46c.01.9.32,1.6.91,2.1.6.5,1.43.76,2.51.76.93,0,1.66-.19,2.18-.57.52-.38.78-.9.78-1.55,0-.49-.15-.88-.44-1.16s-.66-.48-1.09-.61c-.43-.13-1.03-.25-1.79-.37-.87-.14-1.61-.32-2.21-.53-.61-.21-1.12-.54-1.52-1-.41-.46-.61-1.08-.61-1.86,0-1.05.38-1.89,1.15-2.52.76-.62,1.83-.94,3.2-.94s2.52.35,3.32,1.04c.8.7,1.21,1.66,1.22,2.89h-1.43c0-.82-.27-1.46-.81-1.92-.54-.46-1.31-.69-2.3-.69-.91,0-1.62.18-2.12.55s-.75.87-.75,1.5c0,.48.14.86.42,1.13s.64.47,1.07.59c.43.13,1.01.24,1.73.35.91.15,1.67.33,2.28.53.61.2,1.12.53,1.54.99s.63,1.1.63,1.92c0,1.1-.39,1.96-1.18,2.59-.79.63-1.88.95-3.28.95-1,0-1.86-.17-2.6-.5Z"/>
    <path class="st3" d="M512.81,603.83h-1.48v-11.59h1.48v11.59Z"/>
    <path class="st3" d="M519.83,603.83h-1.48v-10.28h-3.79v-1.32h9.08v1.32h-3.81v10.28Z"/>
    <path class="st3" d="M533.42,603.83h-8.04v-11.59h7.88v1.32h-6.38v3.62h5.73v1.32h-5.73v4.03h6.54v1.32Z"/>
    <path class="st3" d="M539.85,603.83v-11.59h3.68c1.31,0,2.47.24,3.47.72,1,.48,1.77,1.15,2.32,2.03.55.88.82,1.89.82,3.04s-.27,2.17-.82,3.04c-.55.88-1.32,1.56-2.32,2.04-1,.48-2.15.72-3.47.72h-3.68ZM543.53,602.51c1.02,0,1.92-.18,2.69-.54.78-.36,1.38-.88,1.81-1.56s.64-1.47.64-2.38-.21-1.7-.64-2.38c-.43-.67-1.03-1.19-1.81-1.55-.78-.36-1.67-.54-2.69-.54h-2.2v8.96h2.2Z"/>
    <path class="st3" d="M560.58,603.83h-8.04v-11.59h7.88v1.32h-6.38v3.62h5.73v1.32h-5.73v4.03h6.54v1.32Z"/>
    <path class="st3" d="M567.01,603.83v-11.59h5c.82,0,1.55.15,2.17.44.62.29,1.11.7,1.45,1.23.34.53.51,1.15.51,1.85,0,.65-.16,1.22-.47,1.73-.32.51-.75.92-1.3,1.22s-1.18.47-1.89.5h-.2l4.17,4.62h-1.87l-3.97-4.54h-2.12v4.54h-1.48ZM572,597.97c.82,0,1.47-.2,1.95-.6.47-.4.71-.94.71-1.62s-.24-1.22-.71-1.61-1.12-.59-1.95-.59h-3.52v4.42h3.52Z"/>
    <path class="st3" d="M586.59,603.83h-8.04v-11.59h7.88v1.32h-6.38v3.62h5.73v1.32h-5.73v4.03h6.54v1.32Z"/>
    <path class="st3" d="M590.43,603.83h-1.48v-11.59h2.13l5.44,9.62h.15v-9.62h1.48v11.59h-2.12l-5.44-9.62h-.16v9.62Z"/>
    <path class="st3" d="M603.43,603.44c-.91-.53-1.62-1.27-2.12-2.2s-.76-2-.76-3.18.25-2.25.76-3.2,1.21-1.69,2.12-2.23,1.93-.81,3.07-.81c.85,0,1.65.18,2.42.54.77.36,1.41.86,1.95,1.5.53.64.89,1.36,1.08,2.16l-1.45.2c-.14-.59-.41-1.12-.8-1.59s-.87-.84-1.42-1.1c-.56-.26-1.15-.39-1.77-.39-.86,0-1.62.21-2.3.63-.68.42-1.21,1-1.59,1.74-.38.74-.57,1.58-.57,2.51s.19,1.77.58,2.52c.39.75.92,1.33,1.6,1.75.68.42,1.44.63,2.29.63.61,0,1.19-.13,1.74-.39.55-.26,1.03-.61,1.43-1.07.4-.46.68-.96.83-1.52l1.42.28c-.18.77-.54,1.46-1.07,2.06-.53.61-1.18,1.08-1.94,1.43-.76.34-1.56.52-2.41.52-1.13,0-2.15-.27-3.05-.8Z"/>
    <path class="st3" d="M616.59,603.45c-.94-.53-1.68-1.26-2.21-2.2-.53-.94-.79-2.02-.79-3.22s.26-2.26.79-3.2c.53-.94,1.26-1.67,2.21-2.2.94-.53,2.01-.8,3.21-.8s2.26.27,3.21.8c.94.53,1.68,1.27,2.21,2.2.53.94.79,2,.79,3.2s-.26,2.28-.79,3.22c-.53.94-1.26,1.68-2.21,2.2s-2.01.79-3.21.79-2.26-.26-3.21-.79ZM622.22,602.29c.72-.42,1.28-1,1.68-1.74s.6-1.58.6-2.52-.2-1.77-.6-2.52c-.4-.75-.96-1.33-1.68-1.74-.72-.42-1.53-.62-2.43-.62s-1.71.21-2.43.62c-.72.42-1.28,1-1.68,1.74-.4.75-.6,1.58-.6,2.52s.2,1.77.6,2.52c.4.75.96,1.33,1.68,1.75s1.53.63,2.43.63,1.71-.21,2.43-.63Z"/>
    <path class="st3" d="M629.86,603.83h-1.48v-11.59h2.13l5.44,9.62h.15v-9.62h1.48v11.59h-2.12l-5.44-9.62h-.16v9.62Z"/>
    <path class="st3" d="M644.59,603.83h-1.48v-10.28h-3.79v-1.32h9.08v1.32h-3.81v10.28Z"/>
    <path class="st3" d="M650.14,603.83v-11.59h5c.82,0,1.55.15,2.17.44.62.29,1.11.7,1.45,1.23.34.53.51,1.15.51,1.85,0,.65-.16,1.22-.47,1.73-.32.51-.75.92-1.3,1.22s-1.18.47-1.89.5h-.2l4.17,4.62h-1.87l-3.97-4.54h-2.12v4.54h-1.48ZM655.14,597.97c.82,0,1.47-.2,1.95-.6.47-.4.71-.94.71-1.62s-.24-1.22-.71-1.61-1.12-.59-1.95-.59h-3.52v4.42h3.52Z"/>
    <path class="st3" d="M669.72,603.83h-8.04v-11.59h7.88v1.32h-6.38v3.62h5.73v1.32h-5.73v4.03h6.54v1.32Z"/>
    <path class="st3" d="M673.74,603.73c-.73-.33-1.29-.82-1.69-1.45-.39-.63-.59-1.37-.59-2.23h1.46c.01.9.32,1.6.91,2.1.6.5,1.43.76,2.51.76.93,0,1.66-.19,2.18-.57.52-.38.78-.9.78-1.55,0-.49-.15-.88-.44-1.16s-.66-.48-1.09-.61c-.43-.13-1.03-.25-1.79-.37-.87-.14-1.61-.32-2.21-.53-.61-.21-1.12-.54-1.52-1-.41-.46-.61-1.08-.61-1.86,0-1.05.38-1.89,1.15-2.52.76-.62,1.83-.94,3.2-.94s2.52.35,3.32,1.04c.8.7,1.21,1.66,1.22,2.89h-1.43c0-.82-.27-1.46-.81-1.92-.54-.46-1.31-.69-2.3-.69-.91,0-1.62.18-2.12.55s-.75.87-.75,1.5c0,.48.14.86.42,1.13s.64.47,1.07.59c.43.13,1.01.24,1.73.35.91.15,1.67.33,2.28.53.61.2,1.12.53,1.54.99s.63,1.1.63,1.92c0,1.1-.39,1.96-1.18,2.59-.79.63-1.88.95-3.28.95-1,0-1.86-.17-2.6-.5Z"/>
    <path class="st3" d="M695.38,603.83h-8.04v-11.59h7.88v1.32h-6.38v3.62h5.73v1.32h-5.73v4.03h6.54v1.32Z"/>
    <path class="st3" d="M698.49,603.83h-1.66l4.13-6.13-3.97-5.46h1.68l3.19,4.59h.15l3.29-4.59h1.68l-4.07,5.46,4.23,6.13h-1.66l-3.47-5.15h-.15l-3.37,5.15Z"/>
    <path class="st3" d="M713.23,603.83h-1.48v-10.28h-3.79v-1.32h9.08v1.32h-3.81v10.28Z"/>
    <path class="st3" d="M718.79,603.83v-11.59h5c.82,0,1.55.15,2.17.44.62.29,1.11.7,1.45,1.23.34.53.51,1.15.51,1.85,0,.65-.16,1.22-.47,1.73-.32.51-.75.92-1.3,1.22s-1.18.47-1.89.5h-.2l4.17,4.62h-1.87l-3.97-4.54h-2.12v4.54h-1.48ZM723.78,597.97c.82,0,1.47-.2,1.95-.6.47-.4.71-.94.71-1.62s-.24-1.22-.71-1.61-1.12-.59-1.95-.59h-3.52v4.42h3.52Z"/>
    <path class="st3" d="M730.68,603.83h-1.42l4.33-11.59h2.02l4.28,11.59h-1.42l-.98-2.6h-5.84l-.98,2.6ZM734.53,593.55l-2.42,6.45h4.98l-2.41-6.45h-.15Z"/>
    <path class="st3" d="M747.4,599.32h-6.67v-1.23h6.67v1.23Z"/>
    <path class="st3" d="M751.97,603.44c-.91-.53-1.62-1.27-2.12-2.2s-.76-2-.76-3.18.25-2.25.76-3.2,1.21-1.69,2.12-2.23,1.93-.81,3.07-.81c.85,0,1.65.18,2.42.54.77.36,1.41.86,1.95,1.5.53.64.89,1.36,1.08,2.16l-1.45.2c-.14-.59-.41-1.12-.8-1.59s-.87-.84-1.42-1.1c-.56-.26-1.15-.39-1.77-.39-.86,0-1.62.21-2.3.63-.68.42-1.21,1-1.59,1.74-.38.74-.57,1.58-.57,2.51s.19,1.77.58,2.52c.39.75.92,1.33,1.6,1.75.68.42,1.44.63,2.29.63.61,0,1.19-.13,1.74-.39.55-.26,1.03-.61,1.43-1.07.4-.46.68-.96.83-1.52l1.42.28c-.18.77-.54,1.46-1.07,2.06-.53.61-1.18,1.08-1.94,1.43-.76.34-1.56.52-2.41.52-1.13,0-2.15-.27-3.05-.8Z"/>
    <path class="st3" d="M765.13,603.45c-.94-.53-1.68-1.26-2.21-2.2-.53-.94-.79-2.02-.79-3.22s.26-2.26.79-3.2c.53-.94,1.26-1.67,2.21-2.2.94-.53,2.01-.8,3.21-.8s2.26.27,3.21.8c.94.53,1.68,1.27,2.21,2.2.53.94.79,2,.79,3.2s-.26,2.28-.79,3.22c-.53.94-1.26,1.68-2.21,2.2s-2.01.79-3.21.79-2.26-.26-3.21-.79ZM770.76,602.29c.72-.42,1.28-1,1.68-1.74s.6-1.58.6-2.52-.2-1.77-.6-2.52c-.4-.75-.96-1.33-1.68-1.74-.72-.42-1.53-.62-2.43-.62s-1.71.21-2.43.62c-.72.42-1.28,1-1.68,1.74-.4.75-.6,1.58-.6,2.52s.2,1.77.6,2.52c.4.75.96,1.33,1.68,1.75s1.53.63,2.43.63,1.71-.21,2.43-.63Z"/>
    <path class="st3" d="M778.4,603.83h-1.48v-11.59h2.13l5.44,9.62h.15v-9.62h1.48v11.59h-2.12l-5.44-9.62h-.16v9.62Z"/>
    <path class="st3" d="M788.74,604.06c-.39-.06-.74-.14-1.05-.24v-1.28c.29.09.6.16.94.21s.61.08.84.08c.68,0,1.24-.22,1.67-.67.43-.45.64-1.05.64-1.81v-8.12h1.48v8.11c0,.75-.15,1.41-.45,1.98-.3.58-.71,1.03-1.24,1.35s-1.12.49-1.78.49c-.31,0-.67-.03-1.05-.09Z"/>
    <path class="st3" d="M798.49,603.61c-.72-.42-1.28-1-1.68-1.73-.41-.74-.61-1.58-.61-2.51v-7.14h1.5v7.14c0,.68.14,1.29.42,1.83.28.54.66.96,1.15,1.27s1.04.45,1.66.45,1.17-.15,1.66-.45.87-.72,1.14-1.27c.27-.54.41-1.15.41-1.83v-7.14h1.48v7.14c0,.93-.2,1.77-.6,2.51-.4.74-.96,1.32-1.67,1.73-.71.42-1.52.62-2.42.62s-1.71-.21-2.43-.62Z"/>
    <path class="st3" d="M810.91,603.44c-.94-.53-1.67-1.27-2.21-2.22-.53-.95-.8-2.01-.8-3.2s.27-2.25.8-3.19c.53-.94,1.27-1.68,2.21-2.21.94-.53,2-.8,3.18-.8.79,0,1.55.14,2.27.44.72.29,1.34.69,1.86,1.2.52.51.88,1.08,1.09,1.72l-1.35.46c-.25-.72-.74-1.32-1.46-1.79-.72-.47-1.53-.71-2.42-.71s-1.72.21-2.43.62c-.71.42-1.27,1-1.67,1.74-.4.74-.6,1.58-.6,2.52s.2,1.77.6,2.52c.4.75.96,1.33,1.68,1.75.72.42,1.53.63,2.43.63.81,0,1.56-.18,2.24-.54.68-.36,1.22-.86,1.62-1.49.4-.63.61-1.33.63-2.1l-5.7-.02v-1.33h7.19c.01.12.02.3.02.53,0,1.21-.25,2.29-.76,3.24-.5.95-1.21,1.7-2.12,2.23-.91.53-1.95.8-3.13.8s-2.24-.27-3.18-.8Z"/>
    <path class="st3" d="M822.51,603.83h-1.42l4.33-11.59h2.02l4.28,11.59h-1.42l-.98-2.6h-5.84l-.98,2.6ZM826.35,593.55l-2.42,6.45h4.98l-2.41-6.45h-.15Z"/>
    <path class="st3" d="M841.02,603.83h-7.26v-11.59h1.48v10.28h5.78v1.32Z"/>
    <path class="st3" d="M851.11,603.83h-8.04v-11.59h7.88v1.32h-6.38v3.62h5.73v1.32h-5.73v4.03h6.54v1.32Z"/>
    <path class="st3" d="M855.13,603.73c-.73-.33-1.29-.82-1.69-1.45-.39-.63-.59-1.37-.59-2.23h1.46c.01.9.32,1.6.91,2.1.6.5,1.43.76,2.51.76.93,0,1.66-.19,2.18-.57.52-.38.78-.9.78-1.55,0-.49-.15-.88-.44-1.16s-.66-.48-1.09-.61c-.43-.13-1.03-.25-1.79-.37-.87-.14-1.61-.32-2.21-.53-.61-.21-1.12-.54-1.52-1-.41-.46-.61-1.08-.61-1.86,0-1.05.38-1.89,1.15-2.52.76-.62,1.83-.94,3.2-.94s2.52.35,3.32,1.04c.8.7,1.21,1.66,1.22,2.89h-1.43c0-.82-.27-1.46-.81-1.92-.54-.46-1.31-.69-2.3-.69-.91,0-1.62.18-2.12.55s-.75.87-.75,1.5c0,.48.14.86.42,1.13s.64.47,1.07.59c.43.13,1.01.24,1.73.35.91.15,1.67.33,2.28.53.61.2,1.12.53,1.54.99s.63,1.1.63,1.92c0,1.1-.39,1.96-1.18,2.59-.79.63-1.88.95-3.28.95-1,0-1.86-.17-2.6-.5Z"/>
    <path class="st3" d="M332.53,622.39v-11.59h4.57c1.26,0,2.26.31,3,.94s1.12,1.49,1.12,2.58c0,.72-.17,1.36-.51,1.9-.34.54-.83.96-1.45,1.25-.62.29-1.34.44-2.16.44h-3.13v4.49h-1.45ZM337.11,616.57c.82,0,1.47-.2,1.95-.6.47-.4.71-.94.71-1.62s-.24-1.24-.71-1.64c-.47-.4-1.12-.6-1.95-.6h-3.13v4.46h3.13Z"/>
    <path class="st3" d="M343.45,622.39v-11.59h5c.82,0,1.55.15,2.17.44.62.29,1.11.7,1.45,1.23.34.53.51,1.15.51,1.85,0,.65-.16,1.22-.47,1.73-.32.51-.75.92-1.3,1.22s-1.18.47-1.89.5h-.2l4.17,4.62h-1.87l-3.97-4.54h-2.12v4.54h-1.48ZM348.45,616.53c.82,0,1.47-.2,1.95-.6.47-.4.71-.94.71-1.62s-.24-1.22-.71-1.61-1.12-.59-1.95-.59h-3.52v4.42h3.52Z"/>
    <path class="st3" d="M363.04,622.39h-8.04v-11.59h7.88v1.32h-6.38v3.62h5.73v1.32h-5.73v4.03h6.54v1.32ZM359.81,609.43h-1.61l1.71-1.86h1.68l-1.77,1.86Z"/>
    <path class="st3" d="M366.89,622.39h-1.5v-11.59h7.31v1.32h-5.81v3.62h5.16v1.32h-5.16v5.34Z"/>
    <path class="st3" d="M382.81,622.39h-8.04v-11.59h7.88v1.32h-6.38v3.62h5.73v1.32h-5.73v4.03h6.54v1.32ZM379.59,609.43h-1.61l1.71-1.86h1.68l-1.77,1.86Z"/>
    <path class="st3" d="M385.18,622.39v-11.59h5c.82,0,1.55.15,2.17.44.62.29,1.11.7,1.45,1.23.34.53.51,1.15.51,1.85,0,.65-.16,1.22-.47,1.73-.32.51-.75.92-1.3,1.22s-1.18.47-1.89.5h-.2l4.17,4.62h-1.87l-3.97-4.54h-2.12v4.54h-1.48ZM390.17,616.53c.82,0,1.47-.2,1.95-.6.47-.4.71-.94.71-1.62s-.24-1.22-.71-1.61-1.12-.59-1.95-.59h-3.52v4.42h3.52Z"/>
    <path class="st3" d="M404.76,622.39h-8.04v-11.59h7.88v1.32h-6.38v3.62h5.73v1.32h-5.73v4.03h6.54v1.32ZM401.54,609.43h-1.61l1.71-1.86h1.68l-1.77,1.86Z"/>
    <path class="st3" d="M411.19,622.39v-11.59h3.68c1.31,0,2.47.24,3.47.72,1,.48,1.77,1.15,2.32,2.03.55.88.82,1.89.82,3.04s-.27,2.17-.82,3.04c-.55.88-1.32,1.56-2.32,2.04-1,.48-2.15.72-3.47.72h-3.68ZM414.87,621.07c1.02,0,1.92-.18,2.69-.54.78-.36,1.38-.88,1.81-1.56s.64-1.47.64-2.38-.21-1.7-.64-2.38c-.43-.67-1.03-1.19-1.81-1.55-.78-.36-1.67-.54-2.69-.54h-2.2v8.96h2.2Z"/>
    <path class="st3" d="M431.91,622.39h-8.04v-11.59h7.88v1.32h-6.38v3.62h5.73v1.32h-5.73v4.03h6.54v1.32Z"/>
    <path class="st3" d="M435.92,622.3c-.73-.33-1.29-.82-1.69-1.45-.39-.63-.59-1.37-.59-2.23h1.46c.01.9.32,1.6.91,2.1.6.5,1.43.76,2.51.76.93,0,1.66-.19,2.18-.57.52-.38.78-.9.78-1.55,0-.49-.15-.88-.44-1.16s-.66-.48-1.09-.61c-.43-.13-1.03-.25-1.79-.37-.87-.14-1.61-.32-2.21-.53-.61-.21-1.12-.54-1.52-1-.41-.46-.61-1.08-.61-1.86,0-1.05.38-1.89,1.15-2.52.76-.62,1.83-.94,3.2-.94s2.52.35,3.32,1.04c.8.7,1.21,1.66,1.22,2.89h-1.43c0-.82-.27-1.46-.81-1.92-.54-.46-1.31-.69-2.3-.69-.91,0-1.62.18-2.12.55s-.75.87-.75,1.5c0,.48.14.86.42,1.13s.64.47,1.07.59c.43.13,1.01.24,1.73.35.91.15,1.67.33,2.28.53.61.2,1.12.53,1.54.99s.63,1.1.63,1.92c0,1.1-.39,1.96-1.18,2.59-.79.63-1.88.95-3.28.95-1,0-1.86-.17-2.6-.5Z"/>
    <path class="st3" d="M451.02,622.39h-1.5v-11.59h7.31v1.32h-5.81v3.62h5.16v1.32h-5.16v5.34Z"/>
    <path class="st3" d="M458.9,622.39v-11.59h5c.82,0,1.55.15,2.17.44.62.29,1.11.7,1.45,1.23.34.53.51,1.15.51,1.85,0,.65-.16,1.22-.47,1.73-.32.51-.75.92-1.3,1.22s-1.18.47-1.89.5h-.2l4.17,4.62h-1.87l-3.97-4.54h-2.12v4.54h-1.48ZM463.9,616.53c.82,0,1.47-.2,1.95-.6.47-.4.71-.94.71-1.62s-.24-1.22-.71-1.61-1.12-.59-1.95-.59h-3.52v4.42h3.52Z"/>
    <path class="st3" d="M470.8,622.39h-1.42l4.33-11.59h2.02l4.28,11.59h-1.42l-.98-2.6h-5.84l-.98,2.6ZM474.64,612.11l-2.42,6.45h4.98l-2.41-6.45h-.15Z"/>
    <path class="st3" d="M483.53,622.39h-1.48v-11.59h2.13l5.44,9.62h.15v-9.62h1.48v11.59h-2.12l-5.44-9.62h-.16v9.62Z"/>
    <path class="st3" d="M501.32,621.1c.55-.26,1.03-.61,1.43-1.07.4-.46.68-.96.85-1.52l1.42.28c-.17.72-.51,1.38-1,1.96-.49.59-1.09,1.06-1.8,1.42-.71.36-1.46.56-2.26.61l-.06.41c.49,0,.89.15,1.21.44.32.29.48.66.48,1.09s-.16.79-.47,1.07c-.31.27-.72.41-1.22.41-.45,0-.83-.11-1.16-.33-.33-.22-.53-.5-.59-.86l.86-.21c.04.21.15.38.31.5.16.13.35.19.57.19.24,0,.43-.07.59-.21s.23-.32.23-.54c0-.25-.1-.46-.29-.61-.2-.15-.44-.23-.73-.23h-.83l.15-1.13c-1.03-.09-1.95-.41-2.76-.96-.81-.55-1.44-1.28-1.9-2.18-.46-.9-.68-1.9-.68-3.01,0-1.18.25-2.25.76-3.2s1.21-1.69,2.12-2.23,1.93-.81,3.07-.81c.85,0,1.65.18,2.42.54.77.36,1.41.86,1.95,1.5.53.64.9,1.36,1.09,2.16l-1.45.2c-.14-.59-.41-1.12-.81-1.59-.4-.47-.87-.84-1.43-1.1-.56-.26-1.15-.39-1.77-.39-.86,0-1.62.21-2.3.63-.68.42-1.21,1-1.59,1.74-.38.74-.57,1.58-.57,2.51s.19,1.77.58,2.52c.39.75.92,1.33,1.6,1.75.68.42,1.44.63,2.29.63.61,0,1.19-.13,1.74-.39Z"/>
    <path class="st3" d="M507.44,622.39h-1.42l4.33-11.59h2.02l4.28,11.59h-1.42l-.98-2.6h-5.84l-.98,2.6ZM511.28,612.11l-2.42,6.45h4.98l-2.41-6.45h-.15Z"/>
    <path class="st3" d="M520.17,622.39h-1.48v-11.59h1.48v11.59Z"/>
    <path class="st3" d="M524.92,622.3c-.73-.33-1.29-.82-1.69-1.45-.39-.63-.59-1.37-.59-2.23h1.46c.01.9.32,1.6.91,2.1.6.5,1.43.76,2.51.76.93,0,1.66-.19,2.18-.57.52-.38.78-.9.78-1.55,0-.49-.15-.88-.44-1.16s-.66-.48-1.09-.61c-.43-.13-1.03-.25-1.79-.37-.87-.14-1.61-.32-2.21-.53-.61-.21-1.12-.54-1.52-1-.41-.46-.61-1.08-.61-1.86,0-1.05.38-1.89,1.15-2.52.76-.62,1.83-.94,3.2-.94s2.52.35,3.32,1.04c.8.7,1.21,1.66,1.22,2.89h-1.43c0-.82-.27-1.46-.81-1.92-.54-.46-1.31-.69-2.3-.69-.91,0-1.62.18-2.12.55s-.75.87-.75,1.5c0,.48.14.86.42,1.13s.64.47,1.07.59c.43.13,1.01.24,1.73.35.91.15,1.67.33,2.28.53.61.2,1.12.53,1.54.99s.63,1.1.63,1.92c0,1.1-.39,1.96-1.18,2.59-.79.63-1.88.95-3.28.95-1,0-1.86-.17-2.6-.5Z"/>
    <path class="st3" d="M538.52,622.39v-11.59h3.68c1.31,0,2.47.24,3.47.72,1,.48,1.77,1.15,2.32,2.03.55.88.82,1.89.82,3.04s-.27,2.17-.82,3.04c-.55.88-1.32,1.56-2.32,2.04-1,.48-2.15.72-3.47.72h-3.68ZM542.2,621.07c1.02,0,1.92-.18,2.69-.54.78-.36,1.38-.88,1.81-1.56s.64-1.47.64-2.38-.21-1.7-.64-2.38c-.43-.67-1.03-1.19-1.81-1.55-.78-.36-1.67-.54-2.69-.54h-2.2v8.96h2.2Z"/>
    <path class="st3" d="M559.24,622.39h-8.04v-11.59h7.88v1.32h-6.38v3.62h5.73v1.32h-5.73v4.03h6.54v1.32Z"/>
    <path class="st3" d="M572.93,622.39h-7.26v-11.59h1.48v10.28h5.78v1.32Z"/>
    <path class="st3" d="M572.72,614.12l-.67-.17.75-1.91c-.22-.05-.39-.16-.51-.32s-.19-.35-.19-.58c0-.26.08-.48.25-.64.17-.16.38-.25.64-.25s.47.08.64.25c.17.17.25.38.25.63,0,.2-.06.43-.18.71l-.99,2.27Z"/>
    <path class="st3" d="M574.92,622.39h-1.42l4.33-11.59h2.02l4.28,11.59h-1.42l-.98-2.6h-5.84l-.98,2.6ZM578.76,612.11l-2.42,6.45h4.98l-2.41-6.45h-.15Z"/>
    <path class="st3" d="M587.65,622.39h-1.48v-11.59h2.13l5.44,9.62h.15v-9.62h1.48v11.59h-2.12l-5.44-9.62h-.16v9.62Z"/>
    <path class="st3" d="M599.94,622.39h-1.48v-11.59h2.13l5.44,9.62h.15v-9.62h1.48v11.59h-2.12l-5.44-9.62h-.16v9.62Z"/>
    <path class="st3" d="M618.79,622.39h-8.04v-11.59h7.88v1.32h-6.38v3.62h5.73v1.32h-5.73v4.03h6.54v1.32ZM615.57,609.43h-1.61l1.71-1.86h1.68l-1.77,1.86Z"/>
    <path class="st3" d="M629.19,622.39h-8.04v-11.59h7.88v1.32h-6.38v3.62h5.73v1.32h-5.73v4.03h6.54v1.32Z"/>
    <path class="st3" d="M637.51,625.35c-.77-.78-1.39-1.86-1.87-3.24-.48-1.38-.72-2.81-.72-4.29s.24-2.91.72-4.3,1.1-2.47,1.87-3.25h1.38c-.85.84-1.52,1.94-2.02,3.29s-.75,2.77-.75,4.26.25,2.94.75,4.28,1.17,2.43,2.02,3.25h-1.38Z"/>
    <path class="st3" d="M640.98,621.89c-.65-.55-.98-1.32-.98-2.31h1.3c.01.6.24,1.08.68,1.45.44.36,1.04.54,1.8.54.62,0,1.11-.12,1.48-.37.37-.25.55-.59.55-1.03,0-.34-.1-.59-.31-.76s-.45-.29-.73-.35-.72-.14-1.32-.21c-.99-.12-1.79-.35-2.39-.7-.61-.34-.91-.94-.91-1.78s.3-1.43.9-1.9,1.4-.7,2.4-.7,1.86.25,2.5.76c.64.51.95,1.19.95,2.05h-1.32c-.01-.5-.21-.91-.6-1.21s-.91-.45-1.55-.45c-.6,0-1.08.13-1.45.38-.37.25-.55.59-.55,1.02,0,.32.1.56.3.73.2.17.45.29.73.35.29.06.72.12,1.29.19.64.08,1.2.19,1.67.35.47.16.87.42,1.18.77.31.36.47.84.47,1.46,0,.81-.3,1.44-.89,1.89-.59.45-1.41.67-2.47.67-1.18,0-2.1-.28-2.75-.83Z"/>
    <path class="st3" d="M650.91,622.14c-.67-.38-1.19-.92-1.56-1.59-.38-.68-.56-1.45-.56-2.32s.19-1.64.56-2.31c.37-.67.89-1.2,1.56-1.59.67-.38,1.43-.58,2.29-.58s1.61.19,2.28.58c.67.38,1.2.92,1.57,1.59.38.68.56,1.45.56,2.3s-.19,1.64-.56,2.32c-.37.68-.9,1.21-1.57,1.59-.67.38-1.43.58-2.28.58s-1.62-.19-2.29-.58ZM654.78,621.07c.47-.28.83-.67,1.09-1.16.26-.49.39-1.05.39-1.68s-.13-1.17-.39-1.66c-.26-.49-.62-.88-1.09-1.16-.47-.28-.99-.42-1.58-.42s-1.11.14-1.58.42c-.47.28-.83.67-1.09,1.16-.26.49-.39,1.05-.39,1.66s.13,1.18.39,1.68c.26.49.62.88,1.09,1.16.47.28.99.42,1.58.42s1.11-.14,1.58-.42Z"/>
    <path class="st3" d="M659.68,622.39v-8.3h1.35v1.13h.16c.29-.46.66-.82,1.11-1.07.45-.25.94-.38,1.48-.38.68,0,1.28.16,1.8.47s.91.75,1.2,1.3.42,1.18.42,1.88v4.97h-1.35v-4.97c0-.71-.2-1.29-.6-1.74-.4-.45-.95-.67-1.64-.67-.46,0-.88.11-1.28.33-.4.22-.71.52-.94.91-.23.39-.35.82-.35,1.29v4.85h-1.35Z"/>
    <path class="st3" d="M670.81,625.77c-.74-.49-1.26-1.17-1.54-2.03l1.35-.51c.22.65.58,1.15,1.09,1.5s1.13.54,1.86.54c.9,0,1.62-.27,2.16-.82.54-.55.81-1.28.81-2.2v-1.12h-.16c-.77.99-1.77,1.48-3,1.48-.81,0-1.55-.19-2.2-.56-.65-.37-1.16-.89-1.52-1.56-.36-.67-.55-1.42-.55-2.25s.18-1.61.55-2.29.88-1.21,1.52-1.6c.65-.38,1.38-.58,2.19-.58,1.25,0,2.25.5,3.01,1.5h.16v-1.18h1.33v8.16c0,.86-.18,1.6-.54,2.25-.36.64-.87,1.14-1.53,1.49-.66.35-1.43.53-2.31.53-1.05,0-1.95-.24-2.69-.73ZM675.09,620.99c.47-.27.83-.65,1.09-1.13.26-.48.39-1.02.39-1.63s-.13-1.17-.4-1.66c-.27-.49-.63-.88-1.1-1.16-.47-.28-.99-.42-1.56-.42s-1.11.14-1.58.42c-.47.28-.83.67-1.09,1.16-.26.49-.39,1.05-.39,1.66s.13,1.15.39,1.63c.26.48.62.86,1.09,1.13.47.27.99.41,1.58.41s1.11-.14,1.58-.41Z"/>
    <path class="st3" d="M680.52,622c-.54-.43-.81-1-.81-1.72s.31-1.37.94-1.88c.63-.5,1.54-.82,2.73-.95l2.28-.28v-.33c0-.56-.19-1.01-.57-1.34-.38-.33-.91-.5-1.58-.5-.63,0-1.13.15-1.5.44-.37.29-.55.69-.54,1.21h-1.37c0-.88.31-1.58.93-2.1.62-.52,1.45-.78,2.49-.78s1.91.28,2.54.85c.63.56.94,1.32.94,2.26v5.51h-1.35v-1.22h-.15c-.61.99-1.56,1.48-2.87,1.48-.89,0-1.6-.22-2.14-.65ZM684.32,621.2c.42-.21.75-.5.99-.87.24-.37.36-.79.36-1.25v-.74l-2.28.26c-.8.1-1.39.29-1.77.58-.37.29-.56.64-.56,1.06,0,.39.16.7.48.93.32.23.76.34,1.31.34s1.04-.1,1.46-.31Z"/>
    <path class="st3" d="M690.65,625.77c-.74-.49-1.26-1.17-1.54-2.03l1.35-.51c.22.65.58,1.15,1.09,1.5s1.13.54,1.86.54c.9,0,1.62-.27,2.16-.82.54-.55.81-1.28.81-2.2v-1.12h-.16c-.77.99-1.77,1.48-3,1.48-.81,0-1.55-.19-2.2-.56-.65-.37-1.16-.89-1.52-1.56-.36-.67-.55-1.42-.55-2.25s.18-1.61.55-2.29.88-1.21,1.52-1.6c.65-.38,1.38-.58,2.19-.58,1.25,0,2.25.5,3.01,1.5h.16v-1.18h1.33v8.16c0,.86-.18,1.6-.54,2.25-.36.64-.87,1.14-1.53,1.49-.66.35-1.43.53-2.31.53-1.05,0-1.95-.24-2.69-.73ZM694.94,620.99c.47-.27.83-.65,1.09-1.13.26-.48.39-1.02.39-1.63s-.13-1.17-.4-1.66c-.27-.49-.63-.88-1.1-1.16-.47-.28-.99-.42-1.56-.42s-1.11.14-1.58.42c-.47.28-.83.67-1.09,1.16-.26.49-.39,1.05-.39,1.66s.13,1.15.39,1.63c.26.48.62.86,1.09,1.13.47.27.99.41,1.58.41s1.11-.14,1.58-.41Z"/>
    <path class="st3" d="M701.94,622.13c-.67-.4-1.2-.94-1.58-1.64-.38-.7-.57-1.48-.57-2.36s.19-1.58.56-2.24c.38-.66.89-1.18,1.55-1.56s1.41-.57,2.25-.57,1.56.19,2.22.57c.66.38,1.17.9,1.54,1.56s.55,1.42.55,2.26c0,.24,0,.42-.02.54h-7.28c.1.84.43,1.52.99,2.03.56.51,1.26.76,2.09.76.61,0,1.16-.15,1.67-.44.5-.29.89-.68,1.15-1.18l1.12.58c-.34.71-.85,1.27-1.55,1.67-.7.4-1.51.6-2.42.6-.85,0-1.61-.2-2.28-.59ZM707.05,617.49c-.12-.76-.45-1.36-.99-1.82s-1.2-.68-1.98-.68-1.4.23-1.93.69c-.53.46-.85,1.06-.97,1.81h5.86Z"/>
    <path class="st3" d="M714.73,612.23c-.18-.19-.28-.42-.28-.71s.09-.5.28-.68c.18-.18.42-.27.7-.27s.51.09.69.26c.18.18.27.41.27.69s-.09.52-.27.71c-.18.19-.41.28-.69.28s-.52-.09-.7-.28ZM716.1,622.39h-1.35v-8.3h1.35v8.3Z"/>
    <path class="st3" d="M725.4,614.33c.65.38,1.16.92,1.53,1.59.37.68.56,1.45.56,2.3s-.18,1.62-.55,2.3-.88,1.21-1.52,1.6-1.36.58-2.16.58c-.66,0-1.26-.14-1.78-.41-.53-.27-.94-.66-1.25-1.15h-.15v5.02h-1.35v-12.09h1.35v1.27h.15c.3-.5.71-.9,1.23-1.17.51-.28,1.11-.42,1.78-.42.79,0,1.51.19,2.16.58ZM721.53,615.42c-.46.29-.82.67-1.09,1.17-.27.49-.4,1.04-.4,1.64s.13,1.15.4,1.65c.27.5.63.89,1.1,1.18.47.29.99.43,1.56.43s1.09-.14,1.55-.43c.46-.29.82-.68,1.09-1.18.27-.5.4-1.05.4-1.65s-.13-1.17-.39-1.66c-.26-.49-.62-.88-1.09-1.16-.47-.28-.99-.42-1.56-.42s-1.11.14-1.57.43Z"/>
    <path class="st3" d="M730.2,621.89c-.65-.55-.98-1.32-.98-2.31h1.3c.01.6.24,1.08.68,1.45.44.36,1.04.54,1.8.54.62,0,1.11-.12,1.48-.37.37-.25.55-.59.55-1.03,0-.34-.1-.59-.31-.76s-.45-.29-.73-.35-.72-.14-1.32-.21c-.99-.12-1.79-.35-2.39-.7-.61-.34-.91-.94-.91-1.78s.3-1.43.9-1.9,1.4-.7,2.4-.7,1.86.25,2.5.76c.64.51.95,1.19.95,2.05h-1.32c-.01-.5-.21-.91-.6-1.21s-.91-.45-1.55-.45c-.6,0-1.08.13-1.45.38-.37.25-.55.59-.55,1.02,0,.32.1.56.3.73.2.17.45.29.73.35.29.06.72.12,1.29.19.64.08,1.2.19,1.67.35.47.16.87.42,1.18.77.31.36.47.84.47,1.46,0,.81-.3,1.44-.89,1.89-.59.45-1.41.67-2.47.67-1.18,0-2.1-.28-2.75-.83Z"/>
    <path class="st3" d="M740.13,622.14c-.67-.38-1.19-.92-1.56-1.59-.38-.68-.56-1.45-.56-2.32s.19-1.64.56-2.31c.37-.67.89-1.2,1.56-1.59.67-.38,1.43-.58,2.29-.58s1.61.19,2.28.58c.67.38,1.2.92,1.57,1.59.38.68.56,1.45.56,2.3s-.19,1.64-.56,2.32c-.37.68-.9,1.21-1.57,1.59-.67.38-1.43.58-2.28.58s-1.62-.19-2.29-.58ZM744,621.07c.47-.28.83-.67,1.09-1.16.26-.49.39-1.05.39-1.68s-.13-1.17-.39-1.66c-.26-.49-.62-.88-1.09-1.16-.47-.28-.99-.42-1.58-.42s-1.11.14-1.58.42c-.47.28-.83.67-1.09,1.16-.26.49-.39,1.05-.39,1.66s.13,1.18.39,1.68c.26.49.62.88,1.09,1.16.47.28.99.42,1.58.42s1.11-.14,1.58-.42Z"/>
    <path class="st3" d="M749.52,621.89c-.65-.55-.98-1.32-.98-2.31h1.3c.01.6.24,1.08.68,1.45.44.36,1.04.54,1.8.54.62,0,1.11-.12,1.48-.37.37-.25.55-.59.55-1.03,0-.34-.1-.59-.31-.76s-.45-.29-.73-.35-.72-.14-1.32-.21c-.99-.12-1.79-.35-2.39-.7-.61-.34-.91-.94-.91-1.78s.3-1.43.9-1.9,1.4-.7,2.4-.7,1.86.25,2.5.76c.64.51.95,1.19.95,2.05h-1.32c-.01-.5-.21-.91-.6-1.21s-.91-.45-1.55-.45c-.6,0-1.08.13-1.45.38-.37.25-.55.59-.55,1.02,0,.32.1.56.3.73.2.17.45.29.73.35.29.06.72.12,1.29.19.64.08,1.2.19,1.67.35.47.16.87.42,1.18.77.31.36.47.84.47,1.46,0,.81-.3,1.44-.89,1.89-.59.45-1.41.67-2.47.67-1.18,0-2.1-.28-2.75-.83Z"/>
    <path class="st3" d="M764.02,617.88h-6.67v-1.23h6.67v1.23Z"/>
    <path class="st3" d="M763.97,625.87v-1.17c.3.1.66.15,1.06.15.37,0,.67-.12.9-.36.23-.24.34-.56.34-.95v-9.46h1.35v9.46c0,.75-.21,1.36-.63,1.83s-.95.71-1.59.71c-.55,0-1.03-.07-1.43-.21ZM766.24,612.23c-.18-.19-.28-.42-.28-.71s.09-.5.28-.68c.18-.18.42-.27.7-.27s.51.09.7.27c.18.18.28.41.28.68s-.09.52-.28.71c-.18.19-.42.28-.7.28s-.52-.09-.7-.28Z"/>
    <path class="st3" d="M777.75,614.08v8.3h-1.35v-1.13h-.16c-.28.45-.65.8-1.1,1.05s-.94.38-1.47.38c-.68,0-1.29-.16-1.81-.47-.52-.31-.92-.75-1.2-1.3s-.42-1.18-.42-1.88v-4.95h1.35v4.95c0,.72.2,1.31.59,1.75.4.44.94.67,1.64.67.46,0,.88-.11,1.28-.33.4-.22.71-.52.94-.91.23-.39.35-.82.35-1.29v-4.83h1.35Z"/>
    <path class="st3" d="M780.37,612.23c-.18-.19-.28-.42-.28-.71s.09-.5.28-.68c.18-.18.42-.27.7-.27s.51.09.69.26c.18.18.27.41.27.69s-.09.52-.27.71c-.18.19-.41.28-.69.28s-.52-.09-.7-.28ZM781.73,622.39h-1.35v-8.3h1.35v8.3Z"/>
    <path class="st3" d="M784.37,622.39v-8.3h1.35v1.13h.16c.29-.46.66-.82,1.11-1.07.45-.25.94-.38,1.48-.38.68,0,1.28.16,1.8.47s.91.75,1.2,1.3.42,1.18.42,1.88v4.97h-1.35v-4.97c0-.71-.2-1.29-.6-1.74-.4-.45-.95-.67-1.64-.67-.46,0-.88.11-1.28.33-.4.22-.71.52-.94.91-.23.39-.35.82-.35,1.29v4.85h-1.35Z"/>
    <path class="st3" d="M798.04,622.39v-.81l4.8-4.65c.47-.46.8-.81,1.01-1.04s.39-.5.54-.8c.15-.3.23-.63.23-.99,0-.45-.11-.86-.32-1.23-.21-.37-.5-.65-.87-.86-.37-.21-.78-.31-1.24-.31-.49,0-.93.13-1.33.38s-.72.6-.97,1.05c-.24.45-.38.95-.4,1.51h-1.43c0-.81.18-1.54.53-2.19.35-.65.84-1.15,1.47-1.52.63-.37,1.33-.55,2.12-.55s1.42.16,2.02.47c.6.31,1.06.74,1.4,1.29.34.55.5,1.17.5,1.86,0,.65-.19,1.27-.57,1.86-.38.59-1,1.29-1.86,2.11l-3.11,2.94v.16h5.34v1.32h-7.86Z"/>
    <path class="st3" d="M810.16,622c-.74-.53-1.32-1.27-1.73-2.21-.41-.94-.61-2.01-.61-3.21s.2-2.26.61-3.21c.41-.94.98-1.68,1.73-2.2.74-.53,1.6-.79,2.58-.79s1.84.26,2.58.79c.74.53,1.32,1.26,1.73,2.2s.62,2.01.62,3.21-.21,2.28-.62,3.22c-.41.94-.99,1.68-1.73,2.2-.74.53-1.6.79-2.58.79s-1.84-.27-2.58-.8ZM814.56,620.86c.53-.42.93-1,1.21-1.74.28-.75.42-1.59.42-2.53s-.14-1.78-.42-2.52c-.28-.74-.69-1.32-1.21-1.74-.53-.42-1.13-.62-1.81-.62s-1.29.21-1.81.62c-.52.42-.92,1-1.2,1.74-.28.74-.42,1.58-.42,2.52s.14,1.8.42,2.54c.28.74.68,1.32,1.2,1.73.52.42,1.12.62,1.81.62s1.29-.21,1.81-.62Z"/>
    <path class="st3" d="M823.62,622.39h-1.48v-9.52h-.16l-2.65,2.04v-1.76l3.11-2.35h1.19v11.59Z"/>
    <path class="st3" d="M832.82,622.39h-1.48v-2.57h-5.67v-.95l4.88-8.07h2.26v7.71h1.43v1.32h-1.43v2.57ZM831.17,612.31l-3.71,6.2h3.86v-6.2h-.15Z"/>
    <path class="st3" d="M835.27,625.35c.85-.82,1.52-1.91,2.02-3.25s.75-2.77.75-4.28-.25-2.9-.75-4.25c-.5-1.35-1.17-2.45-2.02-3.3h1.4c.77.78,1.39,1.86,1.87,3.25.48,1.39.72,2.82.72,4.3s-.24,2.91-.72,4.29c-.48,1.38-1.1,2.46-1.87,3.24h-1.4Z"/>
  </g>
  <g>
    <path class="st3" d="M523.72,392.67c4.54,0,8.9.9,12.69,2.6l-1.42,7.09c-4.69-3.8-10.52-5.89-16.77-5.89-8.98,0-14.69,4.89-16.35,13.19-.44,2.2-.17,3.9.15,5.29h30.35l-11.42,57.24h-7.36l10.84-54.35h-21.88l-10.84,54.35-7.38.1,10.86-54.45h-4.64l.16-.8,5.06-2.1c6.78-16.78,16.34-22.28,27.94-22.28Z"/>
    <path class="st3" d="M568.75,452.01c-3.97,10.79-11.37,20.58-20.65,20.58-9.88,0-14.91-10.69-11.24-29.07,3.73-18.68,13.73-29.37,23.61-29.37,8.57,0,12.36,8.29,12.33,17.58l7.67-38.46h7.36l-15.75,78.92h-7.36l4.03-20.18ZM552.15,467.99c8.57,0,15.48-11.89,18.41-26.57l.04-.2c2.77-13.88-.7-22.78-8.47-22.78-8.27,0-14.86,10.79-17.61,24.58-2.85,14.29-.45,24.97,7.62,24.97Z"/>
    <path class="st3" d="M589.12,444.92c3.65-18.28,14.75-30.97,26.25-30.97,9.88,0,14.28,7.29,12.98,20.38h-29.85c-.6,2-1.12,4.1-1.58,6.39-3.29,16.48-.22,26.37,8.86,26.37,8.17,0,15.07-8.29,19.68-20.78h1.21c-4.77,13.79-12.5,26.27-24.1,26.27s-16.75-11.09-13.44-27.67ZM621.65,432.53c1.27-9.89-1.01-16.68-7.26-16.68s-11.89,5.99-15.33,16.68h22.59ZM630.61,393.67l-1.42,7.09-16.34,7.09h-.81l18.56-14.19Z"/>
    <path class="st3" d="M648.04,393.27h7.46l-15.75,78.92h-7.46l15.75-78.92Z"/>
    <path class="st3" d="M666.5,414.95h7.46l-11.42,57.24h-7.46l11.42-57.24ZM674.14,395.37c3.03,0,4.6,2.2,4.03,5.1-.6,3-3.05,5.19-6.08,5.19s-4.6-2.2-4.01-5.19c.58-2.9,3.13-5.1,6.06-5.1Z"/>
    <path class="st3" d="M680.42,459.9l8.39-42.06h-4.03l.16-.8,13.88-14.99h.6l-2.57,12.89h11.8l-.58,2.9h-11.8l-8.29,41.56c-.9,4.5-.53,7.19,2.2,7.19,4.84,0,9.92-8.29,13.5-15.58h1.11c-4.17,9.79-10.86,21.58-19.03,21.58-5.65,0-6.93-4.69-5.33-12.69Z"/>
    <path class="st3" d="M711.24,444.92c3.65-18.28,14.75-30.97,26.25-30.97,9.88,0,14.28,7.29,12.98,20.38h-29.85c-.6,2-1.12,4.1-1.58,6.39-3.29,16.48-.22,26.37,8.86,26.37,8.17,0,15.07-8.29,19.68-20.78h1.21c-4.77,13.79-12.5,26.27-24.1,26.27s-16.75-11.09-13.44-27.67ZM743.77,432.53c1.27-9.89-1.01-16.68-7.26-16.68s-11.89,5.99-15.33,16.68h22.59ZM752.73,393.67l-1.42,7.09-16.34,7.09h-.81l18.56-14.19Z"/>
  </g>
  <g>
    <rect class="st3" x="103.97" y="576.32" width="8.71" height="46.19"/>
    <path class="st3" d="M147.91,614.64l-7.38-1.89c-.72,1.3-1.75,2.35-3.05,3.13-1.36.82-2.96,1.23-4.74,1.23-2.3,0-4.25-.7-5.81-2.08-1.55-1.38-2.54-3.27-2.92-5.63l-.05-.3h25.13c.06-.5.09-1.36.09-2.58,0-3.3-.71-6.24-2.12-8.75-1.4-2.5-3.4-4.48-5.94-5.88-2.55-1.4-5.51-2.11-8.82-2.11s-6.37.7-8.98,2.08c-2.6,1.38-4.67,3.35-6.13,5.85-1.47,2.51-2.21,5.43-2.21,8.68s.74,6.35,2.21,8.94c1.46,2.59,3.54,4.62,6.16,6.04,2.63,1.42,5.66,2.14,9.01,2.14,3.8,0,7.15-.83,9.97-2.45,2.71-1.57,4.59-3.73,5.59-6.43ZM123.94,603.52c.38-2.23,1.3-4.03,2.73-5.34,1.43-1.32,3.24-1.99,5.38-1.99s4.04.69,5.53,2.05c1.49,1.36,2.4,3.14,2.7,5.29l.04.29h-16.43l.05-.3Z"/>
    <path class="st3" d="M184.17,614.64l-7.38-1.89c-.72,1.3-1.75,2.35-3.05,3.13-1.36.82-2.96,1.23-4.74,1.23-2.3,0-4.25-.7-5.81-2.08-1.55-1.38-2.54-3.27-2.92-5.63l-.05-.3h25.13c.06-.5.09-1.36.09-2.58,0-3.3-.71-6.24-2.12-8.75-1.4-2.5-3.4-4.48-5.94-5.88-2.55-1.4-5.51-2.11-8.82-2.11s-6.37.7-8.98,2.08c-2.6,1.38-4.67,3.35-6.13,5.85-1.47,2.51-2.21,5.43-2.21,8.68s.74,6.35,2.21,8.94c1.46,2.59,3.54,4.62,6.16,6.04,2.63,1.42,5.66,2.14,9.01,2.14,3.8,0,7.15-.83,9.97-2.45,2.71-1.57,4.59-3.73,5.59-6.43ZM160.2,603.52c.38-2.23,1.3-4.03,2.73-5.34,1.43-1.32,3.24-1.99,5.38-1.99s4.04.69,5.53,2.05c1.49,1.36,2.4,3.14,2.7,5.29l.04.29h-16.43l.05-.3Z"/>
    <path class="st3" d="M222.01,622.51v-46.19h-8.71v18.51h-.19l-.08-.11c-1.09-1.59-3.32-2.82-4.99-3.66-1.68-.84-3.62-1.26-5.77-1.26-2.8,0-5.36.72-7.59,2.13-2.23,1.42-4.01,3.41-5.27,5.94-1.26,2.53-1.9,5.49-1.9,8.79s.64,6.27,1.91,8.82c1.26,2.55,3.03,4.54,5.27,5.94h0c2.23,1.39,4.81,2.1,7.65,2.1,4.29,0,8.44-1.68,10.71-4.99l.08-.11h.19v4.09h8.71ZM211.18,613.37h0c-1.62,1.81-3.72,2.73-6.24,2.73s-4.57-.92-6.23-2.73c-1.66-1.8-2.5-4.06-2.5-6.72s.83-4.91,2.47-6.69c1.64-1.79,3.75-2.7,6.27-2.7s4.61.91,6.24,2.7c1.62,1.78,2.43,4.03,2.43,6.69s-.82,4.91-2.43,6.72Z"/>
    <path class="st3" d="M257.41,614.64l-7.38-1.89c-.72,1.3-1.75,2.35-3.05,3.13-1.36.82-2.96,1.23-4.74,1.23-2.3,0-4.25-.7-5.81-2.08-1.55-1.38-2.54-3.27-2.92-5.63l-.05-.3h25.13c.06-.5.09-1.36.09-2.58,0-3.3-.71-6.24-2.12-8.75-1.4-2.5-3.4-4.48-5.94-5.88-2.55-1.4-5.51-2.11-8.82-2.11s-6.37.7-8.98,2.08c-2.6,1.38-4.67,3.35-6.13,5.85-1.47,2.51-2.21,5.43-2.21,8.68s.74,6.35,2.21,8.94c1.46,2.59,3.54,4.62,6.16,6.04,2.63,1.42,5.66,2.14,9.01,2.14,3.8,0,7.15-.83,9.97-2.45,2.71-1.57,4.59-3.73,5.59-6.43ZM233.44,603.52c.38-2.23,1.3-4.03,2.73-5.34,1.43-1.32,3.24-1.99,5.38-1.99s4.04.69,5.53,2.05c1.49,1.36,2.4,3.14,2.7,5.29l.04.29h-16.43l.05-.3Z"/>
    <path class="st3" d="M276.91,597.33c1.9,0,3.43.65,4.56,1.94,1.12,1.28,1.68,2.98,1.68,5.05v18.19h8.71v-19.51c0-2.51-.49-4.79-1.47-6.78-.97-1.98-2.37-3.56-4.14-4.68-1.78-1.12-3.85-1.69-6.16-1.69-3.71,0-7.59,1.8-9.89,5.36l-.08.12h-.2v-4.53h-8.71v31.71h8.71v-17.87c0-2.07.68-3.83,2.04-5.22,1.35-1.39,3.02-2.09,4.95-2.09Z"/>
    <polygon class="st3" points="81.73 599.76 81.73 599.76 81.73 599.76 81.73 599.76"/>
    <g>
      <g>
        <path class="st1" d="M101.76,599.34c0-.35,0-.69-.02-1.04v1.76c.02-.24.02-.48.02-.72Z"/>
        <path class="st1" d="M78.32,618.72c-6.2,0-11.72-2.91-15.27-7.44-1.3.56-2.64,1.01-4.03,1.36,4.23,6.12,11.3,10.14,19.3,10.14,11.19,0,20.55-7.84,22.88-18.32h-4.18c-2.25,8.22-9.77,14.27-18.7,14.27Z"/>
        <path class="st1" d="M61.7,589.35c-1.17-.68-2.3-1.43-3.38-2.25-2.18,3.56-3.44,7.75-3.44,12.24s1.29,8.77,3.52,12.36c1.38-.32,2.72-.76,4-1.3-2.18-3.14-3.47-6.95-3.47-11.06,0-3.65,1.01-7.07,2.77-9.99Z"/>
        <path class="st1" d="M62.92,599.34c0-3.01.86-5.82,2.36-8.19-1.23-.53-2.42-1.13-3.57-1.8-1.76,2.92-2.77,6.33-2.77,9.99,0,4.11,1.28,7.93,3.47,11.06,1.25-.52,2.44-1.14,3.58-1.84-1.93-2.57-3.07-5.76-3.07-9.22Z"/>
        <path class="st1" d="M78.32,614.74c-4.66,0-8.84-2.07-11.66-5.34-1.15.72-2.35,1.35-3.61,1.89,3.55,4.53,9.07,7.44,15.27,7.44,8.93,0,16.46-6.04,18.7-14.27h-4.17c-2.11,5.99-7.82,10.28-14.53,10.28Z"/>
        <path class="st1" d="M67.96,582.95c-1.01-.92-1.9-1.97-2.64-3.13-2.83,1.89-5.23,4.37-7.01,7.28,1.08.82,2.21,1.57,3.38,2.25,1.56-2.59,3.71-4.79,6.26-6.4Z"/>
        <path class="st1" d="M91.31,579.82c-.74,1.16-1.63,2.21-2.64,3.13,2.55,1.62,4.7,3.81,6.26,6.4,1.17-.68,2.3-1.43,3.38-2.25-1.78-2.9-4.18-5.39-7.01-7.28Z"/>
        <path class="st1" d="M68.64,587.36c.93-.75,1.95-1.4,3.03-1.92-1.36-.65-2.6-1.49-3.7-2.49-2.55,1.62-4.7,3.81-6.26,6.4,1.15.67,2.34,1.27,3.57,1.8.54-.86,1.17-1.67,1.87-2.41.43-.53.93-1,1.49-1.38Z"/>
        <path class="st1" d="M87.95,587.32c.62.41,1.16.92,1.62,1.5.67.72,1.27,1.49,1.79,2.33,1.23-.53,2.42-1.13,3.57-1.8-1.56-2.59-3.71-4.79-6.26-6.4-1.1,1-2.35,1.84-3.7,2.49,1.07.51,2.07,1.14,2.98,1.88Z"/>
        <path class="st1" d="M74.06,586.35c-.83-.24-1.62-.54-2.39-.91-1.09.52-2.11,1.17-3.03,1.92,1.1-.75,2.43-1.19,3.87-1.19.53,0,1.05.06,1.55.18Z"/>
        <path class="st1" d="M84.15,586.17c1.41,0,2.71.42,3.8,1.15-.91-.73-1.91-1.37-2.98-1.88-.78.37-1.59.68-2.43.92.51-.12,1.05-.19,1.6-.19Z"/>
        <path class="st1" d="M77.03,575.93c.57,1.29,1.04,2.63,1.4,4.02,3.77.02,7.28,1.12,10.25,2.99,1.01-.92,1.9-1.97,2.64-3.13-3.72-2.48-8.19-3.93-12.99-3.93-.43,0-.87.01-1.3.04Z"/>
        <path class="st1" d="M67.96,582.95c2.73-1.73,5.93-2.8,9.36-2.97-.37-1.37-.85-2.69-1.43-3.96-3.88.4-7.48,1.75-10.57,3.8.74,1.16,1.63,2.21,2.64,3.13Z"/>
        <path class="st1" d="M79.15,583.96c2.08.11,4.05.63,5.82,1.48,1.36-.65,2.6-1.49,3.7-2.49-2.97-1.88-6.48-2.97-10.25-2.99.34,1.3.58,2.64.72,4Z"/>
        <path class="st1" d="M77.33,579.97c-3.43.17-6.63,1.24-9.36,2.97,1.1,1,2.35,1.84,3.7,2.49,1.94-.93,4.11-1.47,6.4-1.5-.14-1.35-.4-2.68-.74-3.96Z"/>
        <path class="st1" d="M79.28,586.92c.98-.06,1.93-.21,2.85-.45.13-.04.27-.08.41-.11.84-.24,1.65-.55,2.43-.92-1.78-.85-3.75-1.37-5.82-1.48.09.9.14,1.81.14,2.73,0,.08,0,.15,0,.23Z"/>
        <path class="st1" d="M74.56,586.48c1.17.29,2.39.45,3.65.46,0-.09,0-.17,0-.26,0-.93-.05-1.85-.15-2.75-2.29.04-4.46.57-6.4,1.5.76.37,1.56.67,2.39.91.17.04.34.08.51.14Z"/>
        <path class="st1" d="M62.4,610.4c-1.29.54-2.62.97-4,1.3.2.32.41.64.62.95,1.39-.35,2.74-.8,4.03-1.36-.23-.29-.44-.58-.65-.88Z"/>
        <path class="st1" d="M65.98,608.56c-1.14.7-2.34,1.32-3.58,1.84.21.3.43.6.65.88,1.25-.54,2.46-1.17,3.61-1.89-.23-.27-.46-.55-.67-.84Z"/>
        <path class="st1" d="M78.32,579.95s.07,0,.11,0c-.36-1.39-.83-2.73-1.4-4.02-.38.02-.76.05-1.13.09.58,1.27,1.06,2.59,1.43,3.96.33-.02.66-.03.99-.03Z"/>
        <path class="st1" d="M77.33,579.97c.35,1.28.6,2.61.74,3.96.08,0,.17,0,.25,0,.28,0,.55,0,.83.02-.14-1.37-.38-2.71-.72-4-.04,0-.07,0-.11,0-.33,0-.67,0-.99.03Z"/>
        <path class="st1" d="M101.74,598.3c-.06-1.49-.27-2.94-.6-4.34h-4.19c.49,1.71.76,3.52.76,5.38s-.24,3.49-.68,5.12h4.18c.32-1.42.51-2.89.55-4.4v-1.76Z"/>
        <path class="st1" d="M93.72,599.34c0,1.8-.31,3.52-.87,5.12h4.17c.45-1.63.68-3.35.68-5.12,0-1.87-.27-3.67-.76-5.38h-4.19c.63,1.68.97,3.49.97,5.38Z"/>
        <path class="st1" d="M85.51,599.8c.29,2.62,2.52,4.66,5.22,4.66h2.13c.56-1.6.87-3.33.87-5.12,0-1.89-.34-3.71-.97-5.38h-1.79c-.38,2.92-2.6,5.27-5.46,5.84Z"/>
        <path class="st1" d="M68.64,587.36c-.56.38-1.07.85-1.49,1.38.47-.49.97-.95,1.49-1.38Z"/>
        <path class="st1" d="M74.56,586.48c-.17-.05-.34-.1-.51-.14.17.05.34.09.51.14Z"/>
        <path class="st1" d="M89.57,588.82c-.46-.58-1-1.09-1.62-1.5.57.46,1.12.96,1.62,1.5Z"/>
        <path class="st1" d="M82.14,586.47c.14-.03.27-.07.41-.11-.14.03-.27.07-.41.11Z"/>
        <path class="st1" d="M85.47,599.2c0,.2.01.4.03.59,2.86-.57,5.08-2.92,5.46-5.84h-.24c-2.9,0-5.25,2.35-5.25,5.25Z"/>
        <polygon class="st1" points="85.47 599.21 85.47 599.2 85.47 599.2 85.47 599.21"/>
      </g>
      <g>
        <path class="st3" d="M101.76,599.34c0-.35,0-.69-.02-1.04v1.76c.02-.24.02-.48.02-.72Z"/>
        <path class="st3" d="M78.32,618.72c-6.2,0-11.72-2.91-15.27-7.44-1.3.56-2.64,1.01-4.03,1.36,4.23,6.12,11.3,10.14,19.3,10.14,11.19,0,20.55-7.84,22.88-18.32h-4.18c-2.25,8.22-9.77,14.27-18.7,14.27Z"/>
        <path class="st3" d="M61.7,589.35c-1.17-.68-2.3-1.43-3.38-2.25-2.18,3.56-3.44,7.75-3.44,12.24s1.29,8.77,3.52,12.36c1.38-.32,2.72-.76,4-1.3-2.18-3.14-3.47-6.95-3.47-11.06,0-3.65,1.01-7.07,2.77-9.99Z"/>
        <path class="st3" d="M62.92,599.34c0-3.01.86-5.82,2.36-8.19-1.23-.53-2.42-1.13-3.57-1.8-1.76,2.92-2.77,6.33-2.77,9.99,0,4.11,1.28,7.93,3.47,11.06,1.25-.52,2.44-1.14,3.58-1.84-1.93-2.57-3.07-5.76-3.07-9.22Z"/>
        <path class="st3" d="M78.32,614.74c-4.66,0-8.84-2.07-11.66-5.34-1.15.72-2.35,1.35-3.61,1.89,3.55,4.53,9.07,7.44,15.27,7.44,8.93,0,16.46-6.04,18.7-14.27h-4.17c-2.11,5.99-7.82,10.28-14.53,10.28Z"/>
        <path class="st3" d="M67.96,582.95c-1.01-.92-1.9-1.97-2.64-3.13-2.83,1.89-5.23,4.37-7.01,7.28,1.08.82,2.21,1.57,3.38,2.25,1.56-2.59,3.71-4.79,6.26-6.4Z"/>
        <path class="st3" d="M91.31,579.82c-.74,1.16-1.63,2.21-2.64,3.13,2.55,1.62,4.7,3.81,6.26,6.4,1.17-.68,2.3-1.43,3.38-2.25-1.78-2.9-4.18-5.39-7.01-7.28Z"/>
        <path class="st3" d="M68.64,587.36c.93-.75,1.95-1.4,3.03-1.92-1.36-.65-2.6-1.49-3.7-2.49-2.55,1.62-4.7,3.81-6.26,6.4,1.15.67,2.34,1.27,3.57,1.8.54-.86,1.17-1.67,1.87-2.41.43-.53.93-1,1.49-1.38Z"/>
        <path class="st3" d="M87.95,587.32c.62.41,1.16.92,1.62,1.5.67.72,1.27,1.49,1.79,2.33,1.23-.53,2.42-1.13,3.57-1.8-1.56-2.59-3.71-4.79-6.26-6.4-1.1,1-2.35,1.84-3.7,2.49,1.07.51,2.07,1.14,2.98,1.88Z"/>
        <path class="st3" d="M74.06,586.35c-.83-.24-1.62-.54-2.39-.91-1.09.52-2.11,1.17-3.03,1.92,1.1-.75,2.43-1.19,3.87-1.19.53,0,1.05.06,1.55.18Z"/>
        <path class="st3" d="M84.15,586.17c1.41,0,2.71.42,3.8,1.15-.91-.73-1.91-1.37-2.98-1.88-.78.37-1.59.68-2.43.92.51-.12,1.05-.19,1.6-.19Z"/>
        <path class="st3" d="M77.03,575.93c.57,1.29,1.04,2.63,1.4,4.02,3.77.02,7.28,1.12,10.25,2.99,1.01-.92,1.9-1.97,2.64-3.13-3.72-2.48-8.19-3.93-12.99-3.93-.43,0-.87.01-1.3.04Z"/>
        <path class="st3" d="M67.96,582.95c2.73-1.73,5.93-2.8,9.36-2.97-.37-1.37-.85-2.69-1.43-3.96-3.88.4-7.48,1.75-10.57,3.8.74,1.16,1.63,2.21,2.64,3.13Z"/>
        <path class="st3" d="M79.15,583.96c2.08.11,4.05.63,5.82,1.48,1.36-.65,2.6-1.49,3.7-2.49-2.97-1.88-6.48-2.97-10.25-2.99.34,1.3.58,2.64.72,4Z"/>
        <path class="st3" d="M77.33,579.97c-3.43.17-6.63,1.24-9.36,2.97,1.1,1,2.35,1.84,3.7,2.49,1.94-.93,4.11-1.47,6.4-1.5-.14-1.35-.4-2.68-.74-3.96Z"/>
        <path class="st3" d="M79.28,586.92c.98-.06,1.93-.21,2.85-.45.13-.04.27-.08.41-.11.84-.24,1.65-.55,2.43-.92-1.78-.85-3.75-1.37-5.82-1.48.09.9.14,1.81.14,2.73,0,.08,0,.15,0,.23Z"/>
        <path class="st3" d="M74.56,586.48c1.17.29,2.39.45,3.65.46,0-.09,0-.17,0-.26,0-.93-.05-1.85-.15-2.75-2.29.04-4.46.57-6.4,1.5.76.37,1.56.67,2.39.91.17.04.34.08.51.14Z"/>
        <path class="st3" d="M62.4,610.4c-1.29.54-2.62.97-4,1.3.2.32.41.64.62.95,1.39-.35,2.74-.8,4.03-1.36-.23-.29-.44-.58-.65-.88Z"/>
        <path class="st3" d="M65.98,608.56c-1.14.7-2.34,1.32-3.58,1.84.21.3.43.6.65.88,1.25-.54,2.46-1.17,3.61-1.89-.23-.27-.46-.55-.67-.84Z"/>
        <path class="st3" d="M78.32,579.95s.07,0,.11,0c-.36-1.39-.83-2.73-1.4-4.02-.38.02-.76.05-1.13.09.58,1.27,1.06,2.59,1.43,3.96.33-.02.66-.03.99-.03Z"/>
        <path class="st3" d="M77.33,579.97c.35,1.28.6,2.61.74,3.96.08,0,.17,0,.25,0,.28,0,.55,0,.83.02-.14-1.37-.38-2.71-.72-4-.04,0-.07,0-.11,0-.33,0-.67,0-.99.03Z"/>
        <path class="st3" d="M101.74,598.3c-.06-1.49-.27-2.94-.6-4.34h-4.19c.49,1.71.76,3.52.76,5.38s-.24,3.49-.68,5.12h4.18c.32-1.42.51-2.89.55-4.4v-1.76Z"/>
        <path class="st3" d="M93.72,599.34c0,1.8-.31,3.52-.87,5.12h4.17c.45-1.63.68-3.35.68-5.12,0-1.87-.27-3.67-.76-5.38h-4.19c.63,1.68.97,3.49.97,5.38Z"/>
        <path class="st3" d="M85.51,599.8c.29,2.62,2.52,4.66,5.22,4.66h2.13c.56-1.6.87-3.33.87-5.12,0-1.89-.34-3.71-.97-5.38h-1.79c-.38,2.92-2.6,5.27-5.46,5.84Z"/>
        <path class="st3" d="M68.64,587.36c-.56.38-1.07.85-1.49,1.38.47-.49.97-.95,1.49-1.38Z"/>
        <path class="st3" d="M74.56,586.48c-.17-.05-.34-.1-.51-.14.17.05.34.09.51.14Z"/>
        <path class="st3" d="M89.57,588.82c-.46-.58-1-1.09-1.62-1.5.57.46,1.12.96,1.62,1.5Z"/>
        <path class="st3" d="M82.14,586.47c.14-.03.27-.07.41-.11-.14.03-.27.07-.41.11Z"/>
        <path class="st3" d="M85.47,599.2c0,.2.01.4.03.59,2.86-.57,5.08-2.92,5.46-5.84h-.24c-2.9,0-5.25,2.35-5.25,5.25Z"/>
        <polygon class="st3" points="85.47 599.21 85.47 599.2 85.47 599.2 85.47 599.21"/>
      </g>
    </g>
  </g>
</svg>