<?xml version="1.0" encoding="UTF-8"?>
<svg id="Calque_1" xmlns="http://www.w3.org/2000/svg" version="1.1" viewBox="0 0 643.59 396.83">
  <!-- Generator: Adobe Illustrator 30.6.0, SVG Export Plug-In . SVG Version: 2.1.4 Build 27)  -->
  <defs>
    <style>
      .st0 {
        fill: #e3ded8;
      }

      .st1 {
        fill: #c880ea;
      }
    </style>
  </defs>
  <path class="st0" d="M89.53,43.53c0-24.27,10.24-41.79,28.09-41.79,7.5,0,13.79,2.97,17.24,5.33v16.39h-1.12c-2.13-11.57-7.91-19.56-17.34-19.56-12.98,0-19.06,14.24-19.06,34.92,0,23.25,7.4,38,19.06,38,10.65,0,15.51-13.42,18.25-30.42h1.42c-2.94,20.28-9.23,36.46-23.12,36.46s-23.42-16.08-23.42-39.33Z"/>
  <path class="st0" d="M153.91,8.71h-.3c-.51,1.95-2.03,3.99-4.56,3.99-2.74,0-4.87-2.05-4.87-5.33,0-3.07,2.03-5.53,5.37-5.53s5.88,2.56,5.88,7.17c0,6.86-4.16,14.85-9.94,18.54v-1.54c4.56-3.28,8.42-10.24,8.42-17.31Z"/>
  <path class="st0" d="M156.85,54.38c0-18.74,8.62-31.75,20.18-31.75,9.94,0,15.82,7.48,17.14,20.89h-30.01c-.2,2.05-.3,4.2-.3,6.55,0,16.9,5.07,27.04,14.2,27.04,8.21,0,13.49-8.5,15.62-21.3h1.22c-2.03,14.13-7.3,26.94-18.96,26.94s-19.06-11.37-19.06-28.37ZM187.07,41.68c-.71-10.14-4.36-17.1-10.65-17.1s-10.75,6.15-12.07,17.1h22.71Z"/>
  <path class="st0" d="M203.39,78.45l-2.54-17.82h1.22c3.55,13.42,9.43,20.28,16.83,20.28,5.78,0,8.82-3.89,8.82-9.12,0-14.24-22.41-19.66-22.41-35.64,0-7.58,5.17-13.31,14.8-13.31,5.48,0,10.55,1.64,14.2,3.89v13.72h-1.22c-1.93-10.45-6.89-15.88-13.89-15.88-5.78,0-8.52,3.58-8.52,8.4,0,13.52,22.71,19.46,22.71,35.33,0,6.96-4.46,14.44-15.41,14.44-5.48,0-11.05-1.84-14.6-4.3Z"/>
  <path class="st0" d="M246.58,69.75V26.63h-4.06v-.82l10.95-15.36h.61v13.21h11.86v2.97h-11.86v42.61c0,4.61.91,7.37,3.65,7.37,4.87,0,8.31-8.5,10.44-15.98h1.12c-2.23,10.04-6.59,22.12-14.8,22.12-5.68,0-7.91-4.81-7.91-13.01Z"/>
  <path class="st0" d="M299.6,23.66h7.5v20.38c1.83-10.96,7.2-21.2,16.73-21.2s17.14,10.96,17.14,29.6-7.91,30.32-17.95,30.32c-8.52,0-14.09-8.71-15.92-18.44v38.51h-7.5V23.66ZM320.39,78.35c8.42,0,12.88-10.96,12.88-25.3s-4.46-25.5-12.57-25.5c-8.62,0-13.28,12.19-13.28,27.14v.21c0,14.44,5.37,23.45,12.98,23.45Z"/>
  <path class="st0" d="M348.37,72.1c0-9.22,7.5-16.18,18.66-24.38,4.26-3.17,7.1-5.33,9.12-6.76-.61-7.89-3.85-13.42-10.65-13.42-8.11,0-13.08,7.37-14.5,16.39h-1.22c1.12-10.55,6.59-21.3,18.86-21.3,8.01,0,13.08,5.22,14.4,17.51l4.06,42.2h-7.3l-2.64-30.21h-.41c-1.72,14.13-6.79,30.52-18.55,30.52-5.98,0-9.84-4-9.84-10.55ZM361.25,76.1c9.83,0,14.7-16.8,15.31-30.42l-.3-3.07-4.66,3.48c-12.07,8.81-17.24,14.54-17.24,21.82,0,5.43,2.84,8.19,6.9,8.19Z"/>
  <path class="st0" d="M399.57,23.66h7.5v21.81c3.25-15.88,11.25-22.53,19.77-22.53v7.48c-1.42-.31-2.54-.51-3.75-.51-11.15,0-16.02,10.96-16.02,25.3v27.14h-7.5V23.66Z"/>
  <path class="st0" d="M458.07,0v6.76c-2.13-1.02-4.67-1.64-7-1.64-7,0-10.95,4.2-10.95,11.88,0,2.05.61,4.61,1.32,6.66h15.51v2.97h-14.5v55.71l-7.4.1V26.63h-4.66v-.82l4.66-2.15c2.84-16.9,10.54-22.53,23.02-23.66Z"/>
  <path class="st0" d="M457.67,53.46c0-17,9.23-30.72,21.9-30.72s20.58,12.5,20.58,29.19-9.23,31.03-21.9,31.03-20.58-12.7-20.58-29.5ZM478.86,81.12c8.82,0,13.49-11.88,13.49-26.83,0-16.59-4.06-29.8-13.38-29.8-8.82,0-13.49,11.78-13.49,26.73,0,16.49,4.06,29.91,13.38,29.91Z"/>
  <path class="st0" d="M515.26,3.58c3.04,0,5.07,2.25,5.07,5.22s-2.03,5.33-5.07,5.33-5.07-2.25-5.07-5.33,2.13-5.22,5.07-5.22ZM511.5,23.66h7.5v58.68h-7.5V23.66Z"/>
  <path class="st0" d="M531.58,78.45l-2.54-17.82h1.22c3.55,13.42,9.43,20.28,16.83,20.28,5.78,0,8.82-3.89,8.82-9.12,0-14.24-22.41-19.66-22.41-35.64,0-7.58,5.17-13.31,14.8-13.31,5.48,0,10.55,1.64,14.2,3.89v13.72h-1.22c-1.93-10.45-6.89-15.88-13.89-15.88-5.78,0-8.52,3.58-8.52,8.4,0,13.52,22.71,19.46,22.71,35.33,0,6.96-4.46,14.44-15.41,14.44-5.48,0-11.05-1.84-14.6-4.3Z"/>
  <path class="st0" d="M7.56,152.38c0-18.74,8.62-31.75,20.18-31.75,9.94,0,15.82,7.48,17.14,20.89H14.86c-.2,2.05-.3,4.2-.3,6.55,0,16.9,5.07,27.04,14.2,27.04,8.21,0,13.49-8.5,15.62-21.3h1.22c-2.03,14.13-7.3,26.94-18.96,26.94s-19.06-11.37-19.06-28.37ZM37.77,139.68c-.71-10.14-4.36-17.1-10.65-17.1s-10.75,6.15-12.07,17.1h22.71Z"/>
  <path class="st0" d="M56.22,121.66h7.5v20.38c2.23-13.42,8.21-21.41,18.15-21.41,8.82,0,13.49,6.35,13.49,18.84v40.86h-7.5v-39.43c0-10.24-3.14-14.95-9.43-14.95-10.04,0-14.7,12.09-14.7,26.42v27.96h-7.5v-58.68Z"/>
  <path class="st0" d="M131.66,121.66h7.5v21.81c3.25-15.88,11.25-22.53,19.77-22.53v7.48c-1.42-.31-2.54-.51-3.75-.51-11.15,0-16.02,10.96-16.02,25.3v27.14h-7.5v-58.68Z"/>
  <path class="st0" d="M161.87,152.38c0-18.74,8.62-31.75,20.18-31.75,9.94,0,15.82,7.48,17.14,20.89h-30.01c-.2,2.05-.3,4.2-.3,6.55,0,16.9,5.07,27.04,14.2,27.04,8.21,0,13.49-8.5,15.62-21.3h1.22c-2.03,14.13-7.3,26.94-18.96,26.94s-19.06-11.37-19.06-28.37ZM192.09,139.68c-.71-10.14-4.36-17.1-10.65-17.1s-10.75,6.15-12.07,17.1h22.71Z"/>
  <path class="st0" d="M208.41,176.45l-2.54-17.82h1.22c3.55,13.42,9.43,20.28,16.83,20.28,5.78,0,8.82-3.89,8.82-9.12,0-14.24-22.41-19.66-22.41-35.64,0-7.58,5.17-13.31,14.8-13.31,5.48,0,10.55,1.64,14.2,3.89v13.72h-1.22c-1.93-10.45-6.89-15.88-13.89-15.88-5.78,0-8.52,3.58-8.52,8.4,0,13.52,22.71,19.46,22.71,35.33,0,6.96-4.46,14.44-15.41,14.44-5.48,0-11.05-1.84-14.6-4.3Z"/>
  <path class="st0" d="M251.6,167.75v-43.12h-4.06v-.82l10.95-15.36h.61v13.21h11.86v2.97h-11.86v42.61c0,4.61.91,7.37,3.65,7.37,4.87,0,8.31-8.5,10.44-15.98h1.12c-2.23,10.04-6.59,22.12-14.8,22.12-5.68,0-7.91-4.81-7.91-13.01Z"/>
  <path class="st0" d="M278.87,170.1c0-9.22,7.5-16.18,18.66-24.38,4.26-3.17,7.1-5.33,9.12-6.76-.61-7.89-3.85-13.42-10.65-13.42-8.11,0-13.08,7.37-14.5,16.39h-1.22c1.12-10.55,6.59-21.3,18.86-21.3,8.01,0,13.08,5.22,14.4,17.51l4.06,42.2h-7.3l-2.64-30.21h-.41c-1.72,14.13-6.79,30.52-18.55,30.52-5.98,0-9.84-4-9.84-10.55ZM291.75,174.1c9.84,0,14.7-16.8,15.31-30.42l-.3-3.07-4.66,3.48c-12.07,8.81-17.24,14.54-17.24,21.82,0,5.43,2.84,8.19,6.89,8.19Z"/>
  <path class="st0" d="M330.07,121.66h7.5v20.38c2.23-13.42,8.21-21.41,18.15-21.41,8.82,0,13.49,6.35,13.49,18.84v40.86h-7.5v-39.43c0-10.24-3.14-14.95-9.43-14.95-10.04,0-14.7,12.09-14.7,26.42v27.96h-7.5v-58.68Z"/>
  <path class="st0" d="M384.21,167.75v-43.12h-4.06v-.82l10.95-15.36h.61v13.21h11.86v2.97h-11.86v42.61c0,4.61.91,7.37,3.65,7.37,4.87,0,8.31-8.5,10.44-15.98h1.12c-2.23,10.04-6.59,22.12-14.8,22.12-5.68,0-7.91-4.81-7.91-13.01Z"/>
  <path class="st0" d="M461.07,98.82c4.56,0,9.12.92,13.28,2.66v7.27c-5.48-3.89-11.76-6.04-18.05-6.04-9.02,0-13.79,5.02-13.79,13.52,0,2.25.61,3.99,1.22,5.43h30.52v58.68h-7.4v-55.71h-22v55.71l-7.4.1v-55.82h-4.67v-.82l4.67-2.15c3.45-17.21,11.96-22.84,23.62-22.84Z"/>
  <path class="st0" d="M518.25,159.66c-1.83,11.06-7.3,21.1-16.63,21.1-9.94,0-17.14-10.96-17.14-29.8s7.91-30.11,17.85-30.11c8.62,0,14.09,8.5,15.92,18.03v-39.43h7.4v80.91h-7.4v-20.69ZM504.76,176.04c8.62,0,13.18-12.19,13.18-27.24v-.2c0-14.24-5.27-23.35-13.08-23.35-8.31,0-12.78,11.06-12.78,25.19s4.56,25.6,12.67,25.6Z"/>
  <path class="st0" d="M537.31,152.38c0-18.74,8.62-31.75,20.18-31.75,9.94,0,15.82,7.48,17.14,20.89h-30.01c-.2,2.05-.3,4.2-.3,6.55,0,16.9,5.07,27.04,14.2,27.04,8.21,0,13.49-8.5,15.62-21.3h1.22c-2.03,14.13-7.3,26.94-18.96,26.94s-19.06-11.37-19.06-28.37ZM567.52,139.68c-.71-10.14-4.36-17.1-10.65-17.1s-10.75,6.15-12.07,17.1h22.71ZM545.52,99.84l15.82,14.54h-.81l-15.01-7.27v-7.27Z"/>
  <path class="st0" d="M586.18,99.43h7.5v80.91h-7.5v-80.91Z"/>
  <path class="st0" d="M605.34,152.38c0-18.74,8.62-31.75,20.18-31.75,9.94,0,15.82,7.48,17.14,20.89h-30.01c-.2,2.05-.3,4.2-.3,6.55,0,16.9,5.07,27.04,14.2,27.04,8.21,0,13.49-8.5,15.62-21.3h1.22c-2.03,14.13-7.3,26.94-18.96,26.94s-19.06-11.37-19.06-28.37ZM635.55,139.68c-.71-10.14-4.36-17.1-10.65-17.1s-10.75,6.15-12.07,17.1h22.71Z"/>
  <path class="st0" d="M33.76,257.66c-1.83,11.06-7.3,21.1-16.63,21.1-9.94,0-17.14-10.96-17.14-29.8s7.91-30.11,17.85-30.11c8.62,0,14.09,8.5,15.92,18.03v-17.21h7.4v79.17h-7.4v-41.17ZM20.28,274.04c8.62,0,13.18-12.19,13.18-27.24v-.2c0-14.24-5.27-23.35-13.08-23.35-8.31,0-12.78,11.06-12.78,25.19s4.56,25.6,12.67,25.6Z"/>
  <path class="st0" d="M56.07,259.09v-39.43h7.5v38.92c0,10.75,3.25,15.16,9.94,15.16,9.33,0,14.3-10.96,14.3-24.27v-29.8h7.5v58.68h-7.1l-.3-19.87c-2.23,11.78-8.31,20.28-17.24,20.28-10.14,0-14.6-7.17-14.6-19.66Z"/>
  <path class="st0" d="M112.04,204.71h-.3c-.51,1.95-2.03,3.99-4.56,3.99-2.74,0-4.87-2.05-4.87-5.33,0-3.07,2.03-5.53,5.37-5.53s5.88,2.56,5.88,7.17c0,6.86-4.16,14.85-9.94,18.54v-1.54c4.56-3.28,8.42-10.24,8.42-17.31Z"/>
  <path class="st0" d="M114.77,249.46c0-17,9.23-30.72,21.9-30.72s20.58,12.5,20.58,29.19-9.23,31.03-21.9,31.03-20.58-12.7-20.58-29.5ZM135.96,277.12c8.82,0,13.49-11.88,13.49-26.83,0-16.59-4.06-29.8-13.38-29.8-8.82,0-13.49,11.78-13.49,26.73,0,16.49,4.06,29.91,13.38,29.91Z"/>
  <path class="st0" d="M168.61,219.66h7.5v20.38c2.23-13.42,8.21-21.41,18.15-21.41,8.82,0,13.49,6.35,13.49,18.84v40.86h-7.5v-39.43c0-10.24-3.14-14.95-9.43-14.95-10.04,0-14.7,12.09-14.7,26.42v27.96h-7.5v-58.68Z"/>
  <path class="st0" d="M241.2,274.45l-2.54-17.82h1.22c3.55,13.42,9.43,20.28,16.83,20.28,5.78,0,8.82-3.89,8.82-9.12,0-14.24-22.41-19.66-22.41-35.64,0-7.58,5.17-13.31,14.8-13.31,5.48,0,10.55,1.64,14.2,3.89v13.72h-1.22c-1.93-10.45-6.89-15.88-13.89-15.88-5.78,0-8.52,3.58-8.52,8.4,0,13.52,22.71,19.46,22.71,35.33,0,6.96-4.46,14.44-15.41,14.44-5.48,0-11.05-1.84-14.6-4.3Z"/>
  <path class="st0" d="M280.64,250.38c0-18.74,8.62-31.75,20.18-31.75,9.94,0,15.82,7.48,17.14,20.89h-30.01c-.2,2.05-.3,4.2-.3,6.55,0,16.9,5.07,27.04,14.2,27.04,8.21,0,13.49-8.5,15.62-21.3h1.22c-2.03,14.13-7.3,26.94-18.96,26.94s-19.06-11.37-19.06-28.37ZM310.86,237.68c-.71-10.14-4.36-17.1-10.65-17.1s-10.75,6.15-12.07,17.1h22.71Z"/>
  <path class="st1" d="M342.9,278.75c-2.77,0-4.53-1.11-5.27-3.33-.74-2.22-.64-5.44.3-9.68l9.73-43.12h-4.06l.1-.82,14.5-15.36h.61l-3.04,13.21h11.86l-.61,2.97h-11.86l-9.63,42.6c-.54,2.46-.66,4.3-.36,5.53.3,1.23,1.1,1.84,2.38,1.84,3.92,0,8.58-5.33,13.99-15.98h1.12c-2.7,6.21-5.75,11.45-9.12,15.72-3.38,4.27-6.93,6.4-10.65,6.4Z"/>
  <path class="st1" d="M380.41,219.66h7.5l-4.87,21.81c3.24-7.58,7.06-13.23,11.46-16.95,4.39-3.72,8.85-5.58,13.38-5.58l-1.62,7.48c-1.56-.34-2.81-.51-3.75-.51-5.34,0-9.85,2.32-13.54,6.96-3.69,4.64-6.41,10.75-8.16,18.33l-6.08,27.14h-7.5l13.18-58.68Z"/>
  <path class="st1" d="M421.47,278.96c-3.99,0-7.23-1.28-9.73-3.84-2.5-2.56-4.12-6.09-4.87-10.6-.74-4.51-.51-9.52.71-15.05,1.29-5.6,3.4-10.75,6.34-15.46,2.94-4.71,6.39-8.43,10.34-11.16,3.95-2.73,7.99-4.1,12.12-4.1s7.25,1.26,9.78,3.79c2.54,2.53,4.19,6.01,4.97,10.45.78,4.44.52,9.42-.76,14.95-1.22,5.67-3.31,10.87-6.29,15.62-2.98,4.75-6.46,8.5-10.44,11.27-3.99,2.76-8.04,4.15-12.17,4.15ZM415.9,247.21c-1.96,8.81-2.45,15.99-1.47,21.56.98,5.57,3.7,8.35,8.16,8.35s8.14-2.53,11.66-7.58c3.51-5.05,6.15-11.47,7.91-19.25,1.96-8.81,2.43-15.98,1.42-21.51-1.01-5.53-3.75-8.3-8.21-8.3s-8.13,2.51-11.61,7.53c-3.48,5.02-6.1,11.42-7.86,19.2Z"/>
  <path class="st1" d="M470.24,219.66h7.4l-5.07,21.3c2.7-7.1,6.01-12.6,9.94-16.49,3.92-3.89,8.35-5.84,13.28-5.84,4.39,0,7.38,1.59,8.97,4.76,1.59,3.17,1.67,7.87.25,14.08l-1.01,3.48c2.77-7.17,6.1-12.68,9.99-16.54,3.89-3.86,8.3-5.79,13.23-5.79,4.39,0,7.38,1.59,8.97,4.76,1.59,3.17,1.67,7.87.25,14.08l-9.23,40.86h-7.4l8.82-39.43c1.22-5.12,1.3-8.89.25-11.32-1.05-2.42-3.16-3.64-6.34-3.64-4.73,0-8.91,2.51-12.52,7.53-3.62,5.02-6.3,11.32-8.06,18.9l-6.18,27.96h-7.4l8.82-39.43c1.22-5.12,1.3-8.89.25-11.32-1.05-2.42-3.16-3.64-6.34-3.64-4.73,0-8.91,2.51-12.52,7.53-3.62,5.02-6.3,11.32-8.06,18.9l-6.18,27.96h-7.4l13.28-58.68Z"/>
  <path class="st1" d="M559.67,219.66h7.5l-4.56,20.38c2.37-6.08,5.41-11.13,9.12-15.16,3.72-4.03,7.81-6.04,12.27-6.04,3.31,0,6.02,1.18,8.11,3.53,2.09,2.36,3.35,5.77,3.75,10.24.41,4.47-.04,9.75-1.32,15.82-1.42,6.28-3.43,11.71-6.03,16.28-2.6,4.58-5.53,8.06-8.77,10.45-3.25,2.39-6.56,3.58-9.94,3.58-4.06,0-7.1-1.76-9.12-5.27-2.03-3.52-2.94-7.9-2.74-13.16l-8.62,38.51h-7.5l17.84-79.17ZM560.38,250.9c-1.01,4.71-1.39,8.84-1.12,12.39.27,3.55,1.17,6.28,2.69,8.19,1.52,1.91,3.53,2.87,6.03,2.87,4.06,0,7.76-2.36,11.1-7.07s5.9-10.79,7.65-18.23c1.69-7.51,1.91-13.64.66-18.38-1.25-4.74-3.84-7.12-7.76-7.12-4.19,0-8.01,2.58-11.46,7.73-3.45,5.16-6.05,11.62-7.81,19.41v.2Z"/>
  <path class="st1" d="M616.14,278.75c-3.85,0-6.96-1.18-9.33-3.53-2.37-2.36-3.82-5.67-4.36-9.93-.54-4.27-.2-9.23,1.01-14.9,1.42-6.14,3.55-11.62,6.39-16.44s6.07-8.57,9.68-11.27c3.62-2.7,7.35-4.04,11.2-4.04,4.93,0,8.47,1.79,10.59,5.38,2.13,3.58,2.75,8.76,1.88,15.52h-30.01c-.61,2.05-1.18,4.23-1.72,6.55-1.89,8.54-2.16,15.17-.81,19.92,1.35,4.75,4.29,7.12,8.82,7.12,3.99,0,7.76-1.9,11.31-5.68s6.61-9,9.18-15.62h1.22c-2.98,7.99-6.54,14.48-10.7,19.46-4.16,4.98-8.94,7.48-14.35,7.48ZM636.52,237.69c.88-5.26.74-9.42-.41-12.49-1.15-3.07-3.24-4.61-6.29-4.61s-6.15,1.49-8.92,4.46c-2.77,2.97-5.14,7.19-7.1,12.65h22.71Z"/>
  <path class="st0" d="M195.02,295.43h7.5v80.91h-7.5v-80.91Z"/>
  <path class="st0" d="M214.18,348.38c0-18.74,8.62-31.75,20.18-31.75,9.94,0,15.82,7.48,17.14,20.89h-30.01c-.2,2.05-.3,4.2-.3,6.55,0,16.9,5.07,27.04,14.2,27.04,8.21,0,13.49-8.5,15.62-21.3h1.22c-2.03,14.13-7.3,26.94-18.96,26.94s-19.06-11.37-19.06-28.37ZM244.4,335.68c-.71-10.14-4.36-17.1-10.65-17.1s-10.75,6.15-12.07,17.1h22.71Z"/>
  <path class="st0" d="M284.85,317.66h7.5v20.38c1.83-10.96,7.2-21.2,16.73-21.2s17.14,10.96,17.14,29.6-7.91,30.32-17.95,30.32c-8.52,0-14.09-8.71-15.92-18.44v38.51h-7.5v-79.17ZM305.64,372.35c8.42,0,12.88-10.96,12.88-25.3s-4.46-25.5-12.57-25.5c-8.62,0-13.28,12.19-13.28,27.14v.21c0,14.44,5.37,23.45,12.98,23.45Z"/>
  <path class="st0" d="M337.68,295.43h7.5v80.91h-7.5v-80.91Z"/>
  <path class="st0" d="M360.08,357.09v-39.43h7.5v38.92c0,10.75,3.25,15.16,9.94,15.16,9.33,0,14.3-10.96,14.3-24.27v-29.8h7.5v58.68h-7.1l-.3-19.87c-2.23,11.78-8.31,20.28-17.24,20.28-10.14,0-14.6-7.17-14.6-19.66Z"/>
  <path class="st0" d="M411.89,372.45l-2.54-17.82h1.22c3.55,13.42,9.43,20.28,16.83,20.28,5.78,0,8.82-3.89,8.82-9.12,0-14.24-22.41-19.66-22.41-35.64,0-7.58,5.17-13.31,14.8-13.31,5.48,0,10.55,1.64,14.2,3.89v13.72h-1.22c-1.93-10.45-6.89-15.88-13.89-15.88-5.78,0-8.52,3.58-8.52,8.4,0,13.52,22.71,19.46,22.71,35.33,0,6.96-4.46,14.44-15.41,14.44-5.48,0-11.05-1.84-14.6-4.3Z"/>
  <path class="st0" d="M449.81,371.74c0-2.97,2.13-5.12,5.17-5.12,2.84,0,5.07,2.15,5.07,5.12s-2.23,5.12-5.07,5.12c-3.04,0-5.17-2.15-5.17-5.12Z"/>
</svg>