<?xml version="1.0" encoding="UTF-8"?>
<svg id="Calque_2" xmlns="http://www.w3.org/2000/svg" version="1.1" viewBox="0 0 1071.83 221.83">
  <!-- Generator: Adobe Illustrator 30.6.0, SVG Export Plug-In . SVG Version: 2.1.4 Build 27)  -->
  <defs>
    <style>
      .st0 {
        fill: #c880ea;
      }
    </style>
  </defs>
  <rect class="st0" x="230.54" y="8.57" width="39.35" height="208.72"/>
  <path class="st0" d="M427.41,181.72l-33.37-8.56c-3.26,5.86-7.9,10.62-13.79,14.15-6.16,3.7-13.37,5.57-21.43,5.57-10.39,0-19.22-3.16-26.25-9.39-7.03-6.22-11.46-14.77-13.19-25.43l-.22-1.35h113.56c.27-2.26.41-6.17.41-11.64,0-14.9-3.22-28.2-9.57-39.54-6.34-11.32-15.37-20.26-26.86-26.57-11.51-6.32-24.92-9.53-39.85-9.53s-28.78,3.16-40.57,9.39c-11.76,6.22-21.08,15.12-27.7,26.44-6.62,11.33-9.98,24.53-9.98,39.23s3.36,28.67,9.99,40.39c6.62,11.69,15.98,20.87,27.84,27.28,11.88,6.42,25.57,9.67,40.7,9.67,17.17,0,32.32-3.73,45.03-11.08,12.25-7.08,20.74-16.85,25.25-29.04h0ZM319.1,131.51c1.73-10.07,5.87-18.19,12.33-24.12,6.48-5.96,14.66-8.98,24.3-8.98s18.23,3.12,25,9.26c6.75,6.13,10.85,14.17,12.2,23.88l.18,1.32h-74.24l.23-1.36Z"/>
  <path class="st0" d="M590.65,181.72l-33.37-8.56c-3.26,5.86-7.9,10.62-13.79,14.15-6.16,3.7-13.37,5.57-21.43,5.57-10.39,0-19.22-3.16-26.25-9.39-7.03-6.22-11.46-14.77-13.19-25.43l-.22-1.35h113.56c.27-2.26.41-6.17.41-11.64,0-14.9-3.22-28.2-9.57-39.54-6.34-11.32-15.37-20.26-26.86-26.57-11.51-6.32-24.92-9.53-39.85-9.53s-28.78,3.16-40.57,9.39c-11.76,6.22-21.08,15.12-27.7,26.44-6.62,11.33-9.98,24.53-9.98,39.23s3.36,28.67,9.99,40.39c6.62,11.69,15.98,20.87,27.84,27.28,11.88,6.42,25.57,9.67,40.7,9.67,17.17,0,32.32-3.73,45.03-11.08,12.25-7.08,20.74-16.85,25.25-29.04h0ZM482.33,131.51c1.73-10.07,5.87-18.19,12.33-24.12,6.48-5.96,14.66-8.98,24.3-8.98s18.23,3.12,25,9.26c6.75,6.13,10.85,14.17,12.2,23.88l.18,1.32h-74.24l.23-1.36Z"/>
  <path class="st0" d="M761.01,217.29V8.57h-39.35v83.62h-.87l-.35-.51c-4.93-7.19-14.99-12.76-22.57-16.54-7.6-3.79-16.38-5.71-26.09-5.71-12.67,0-24.21,3.24-34.29,9.63-10.1,6.4-18.11,15.43-23.8,26.84-5.71,11.44-8.61,24.81-8.61,39.73s2.9,28.34,8.61,39.87c5.69,11.51,13.7,20.53,23.79,26.83h0c10.09,6.3,21.73,9.49,34.58,9.49,19.4,0,38.14-7.58,48.38-22.53l.35-.51h.87v18.49h39.35v.02ZM712.07,176h0c-7.33,8.18-16.81,12.33-28.18,12.33s-20.65-4.15-28.17-12.32c-7.49-8.15-11.29-18.37-11.29-30.37s3.75-22.17,11.15-30.23c7.42-8.08,16.95-12.18,28.31-12.18s20.84,4.1,28.17,12.19c7.3,8.06,11,18.22,11,30.22s-3.7,22.21-11,30.36h0Z"/>
  <path class="st0" d="M918.53,181.72l-33.37-8.56c-3.26,5.86-7.9,10.62-13.79,14.15-6.16,3.7-13.37,5.57-21.43,5.57-10.39,0-19.22-3.16-26.25-9.39-7.03-6.22-11.46-14.77-13.19-25.43l-.22-1.35h113.56c.27-2.26.41-6.17.41-11.64,0-14.9-3.22-28.2-9.57-39.54-6.34-11.32-15.37-20.26-26.86-26.57-11.51-6.32-24.92-9.53-39.85-9.53s-28.78,3.16-40.57,9.39c-11.76,6.22-21.08,15.12-27.7,26.44-6.62,11.33-9.98,24.53-9.98,39.23s3.36,28.67,9.99,40.39c6.62,11.69,15.98,20.87,27.84,27.28,11.88,6.42,25.57,9.67,40.7,9.67,17.17,0,32.32-3.73,45.03-11.08,12.25-7.08,20.74-16.85,25.25-29.04h0ZM810.22,131.51c1.73-10.07,5.87-18.19,12.33-24.12,6.48-5.96,14.66-8.98,24.3-8.98s18.23,3.12,25,9.26c6.75,6.13,10.85,14.17,12.2,23.88l.18,1.32h-74.24l.23-1.36Z"/>
  <path class="st0" d="M1004.28,103.52c8.57,0,15.49,2.96,20.59,8.79,5.05,5.79,7.61,13.46,7.61,22.81v82.17h39.35v-88.15c0-11.33-2.23-21.64-6.64-30.63-4.39-8.95-10.69-16.07-18.72-21.14-8.04-5.07-17.4-7.64-27.82-7.64-16.77,0-34.28,8.15-44.7,24.21l-.34.53h-.89v-20.48h-39.35v143.3h39.35v-80.75c0-9.37,3.1-17.3,9.2-23.56,6.11-6.27,13.64-9.45,22.37-9.45h0Z"/>
  <path class="st0" d="M221.71,106.36v-.36h0c-.31-7.05-1.27-13.92-2.83-20.56h-39.67c.13.37.27.75.4,1.12-.13-.37-.28-.75-.42-1.12h-9.6c-13.72,0-24.85,11.14-24.85,24.85h0c0,.97.05,1.88.16,2.79,1.4,12.4,11.92,22.05,24.69,22.05h10.05c-9.97,28.35-36.98,48.65-68.74,48.65h.01c-22.05,0-41.81-9.79-55.18-25.27-1.11-1.29-2.17-2.61-3.19-3.95-9.1-12.16-14.5-27.27-14.5-43.63,0-14.24,4.08-27.53,11.15-38.76h0c2.57-4.09,5.54-7.89,8.83-11.38l.08-.09c2.16-2.26,4.46-4.4,6.89-6.37l.09-.06c5.22-3.55,11.5-5.63,18.28-5.63,2.53,0,4.99.29,7.36.84h.02c.81.19,1.59.4,2.39.64,5.53,1.38,11.31,2.15,17.27,2.18,0-.42.01-.82.01-1.22,0-4.4-.25-8.74-.71-13.01h-.02.01c.39,0,.8-.02,1.18-.02,1.32,0,2.63.03,3.91.1h0c.44,4.25.65,8.55.65,12.92v1.09c4.64-.29,9.14-1.01,13.51-2.12.63-.19,1.28-.36,1.92-.52,2.44-.58,4.97-.89,7.59-.89,6.65,0,12.84,1.99,18,5.43,2.71,2.18,5.27,4.55,7.65,7.1,3.18,3.37,6.02,7.07,8.5,11,5.82-2.49,11.47-5.33,16.91-8.49h0c5.55-3.23,10.88-6.79,15.98-10.65-8.43-13.74-19.76-25.5-33.15-34.43v-.02C154.77,6.85,133.62,0,110.89,0c-2.06,0-4.09.07-6.12.18h0c-1.79.09-3.56.23-5.32.42h-.01c-18.35,1.89-35.38,8.25-49.98,17.98,0,0,.01,0,.01.02h-.02c-13.4,8.92-24.73,20.69-33.15,34.43C5.96,69.87,0,89.69,0,110.91s6.1,41.49,16.66,58.47h0c.93,1.53,1.92,3.03,2.94,4.49h.02c20.01,28.96,53.43,47.94,91.31,47.94,52.93,0,97.2-37.09,108.25-86.69h0c1.5-6.73,2.39-13.69,2.62-20.82v-.49c.02-.97.04-1.94.04-2.92h0c0-1.52-.04-3.03-.1-4.55h-.01Z"/>
</svg>