<?xml version="1.0" encoding="UTF-8"?>
<svg id="Calque_1" xmlns="http://www.w3.org/2000/svg" version="1.1" viewBox="0 0 213.72 213.71">
  <!-- Generator: Adobe Illustrator 30.6.0, SVG Export Plug-In . SVG Version: 2.1.4 Build 27)  -->
  <defs>
    <style>
      .st0 {
        fill: #280f37;
      }
    </style>
  </defs>
  <path class="st0" d="M213.61,102.47v-.35h0c-.3-6.79-1.22-13.41-2.73-19.81h-38.22c.13.36.26.72.39,1.08-.13-.36-.27-.72-.4-1.08h-9.25c-13.22,0-23.94,10.73-23.94,23.94h0c0,.93.05,1.81.15,2.69,1.35,11.95,11.48,21.24,23.79,21.24h9.68c-9.61,27.31-35.63,46.87-66.23,46.87h.01c-21.24,0-40.28-9.43-53.16-24.35-1.07-1.24-2.09-2.51-3.07-3.81-8.77-11.72-13.97-26.27-13.97-42.04,0-13.72,3.93-26.52,10.74-37.34h0c2.48-3.94,5.34-7.6,8.51-10.96l.08-.09c2.08-2.18,4.3-4.24,6.64-6.14l.09-.06c5.03-3.42,11.08-5.42,17.61-5.42,2.44,0,4.81.28,7.09.81h.02c.78.18,1.53.39,2.3.62,5.33,1.33,10.9,2.07,16.64,2.1,0-.4.01-.79.01-1.18,0-4.24-.24-8.42-.68-12.53h-.02.01c.38,0,.77-.02,1.14-.02,1.27,0,2.53.03,3.77.1h0c.42,4.09.63,8.24.63,12.45v1.05c4.47-.28,8.81-.97,13.02-2.04.61-.18,1.23-.35,1.85-.5,2.35-.56,4.79-.86,7.31-.86,6.41,0,12.37,1.92,17.34,5.23,2.61,2.1,5.08,4.38,7.37,6.84,3.06,3.25,5.8,6.81,8.19,10.6,5.61-2.4,11.05-5.14,16.29-8.18h0c5.35-3.11,10.48-6.54,15.4-10.26-8.12-13.24-19.04-24.57-31.94-33.17v-.02C149.11,6.6,128.74,0,106.84,0c-1.98,0-3.94.07-5.9.17h0c-1.72.09-3.43.22-5.13.4h-.01c-17.68,1.82-34.09,7.95-48.15,17.32,0,0,0,0,0,.02h-.02c-12.91,8.59-23.83,19.93-31.94,33.17C5.74,67.32,0,86.41,0,106.86s5.88,39.97,16.05,56.33h0c.9,1.47,1.85,2.92,2.83,4.33h.02c19.28,27.9,51.48,46.19,87.97,46.19,51,0,93.65-35.73,104.29-83.52h0c1.45-6.48,2.3-13.19,2.52-20.06v-.47c.02-.93.04-1.87.04-2.81h0c0-1.46-.04-2.92-.1-4.38h0Z"/>
</svg>