<?xml version="1.0" encoding="UTF-8"?>
<svg id="Calque_1" xmlns="http://www.w3.org/2000/svg" version="1.1" viewBox="0 0 1920 1080">
  <!-- Generator: Adobe Illustrator 30.8.1, SVG Export Plug-In . SVG Version: 2.1.4 Build 1)  -->
  <defs>
    <style>
      .st0 {
        fill: #f5ec7d;
        stroke: #222221;
        stroke-miterlimit: 10;
        stroke-width: .5px;
      }

      .st1 {
        fill: #222221;
      }
    </style>
  </defs>
  <ellipse class="st0" cx="959.64" cy="539.59" rx="32.17" ry="30.93" transform="translate(-128.55 372.52) rotate(-20.62)"/>
  <g>
    <path class="st1" d="M981.58,541.69l-1.02,3.52c-.11.38-.41.63-.82.55-.33-.06-.65-.44-.54-.82l.44-1.54.32-1.19.25-.89-1.53-.45-.27.99-.51,1.74c-.11.39-.49.63-.84.53-.4-.13-.61-.5-.5-.9l.74-2.72-1.25-.37c-.12-.04-.24-.06-.31-.14.04.11.07.23.06.35-.16,1.87-.87,3.82-1.72,5.48.07.56.11,2.35-.22,2.73-.03.03-.06.06-.1.08l1.25.37,6,1.73c.26.07.47.12.67.03.26-.11.42-.3.49-.57l.27-.95,1.71-5.71c.09-.29.17-.51.05-.77-.11-.24-.31-.42-.6-.5l-2.06-.57h.04Z"/>
    <path class="st1" d="M942.08,539.39c-.4-2.66.04-5.84,1.12-8.3.02-.05.06-.09.09-.13.04-.04.08-.08.13-.12-.1.08-.19,0-.3-.02l-1.51-.42-.44,1.77c-.17.67-.28,1.35-.51,2-.13.35-.56.41-.84.3-.32-.13-.53-.45-.45-.81l.52-2.23.33-1.42-2.01-.58c-.42-.12-.94,0-1.06.49l-1.02,4.23-.67,2.76c-.1.39.05.88.47,1l4.96,1.42,1.34.35s-.07-.1-.09-.15c-.03-.05-.05-.1-.06-.15h0Z"/>
    <path class="st1" d="M962.16,521.63c1.3.2,3.33.95,4.45,1.62.11.07.19.16.27.26l.14-.59.59-2.21.59-2.21.41-1.55c.26-1.28-.49-2.59-1.72-3-1.41-.47-2.89.26-3.33,1.66l-.33,1.19-.58,2.14-.61,2.28-.14.47s.08-.03.13-.04c.04,0,.08-.02.12-.01h0Z"/>
    <path class="st1" d="M957.84,556.2c-1.71-.77-2.88-2.03-3.74-3.62-.07-.05-.13-.1-.19-.15l-.86,3.32c-.09.34.27.68.55.76l1.02.3s.04-.09.07-.09c.2.03,1.05.27,1.22.36l.04.12.8.25c.43.13.91.03,1.09-.41l.23-.85s-.08.02-.12.02h-.11Z"/>
    <g>
      <path class="st1" d="M954.61,556.81l-.34,1.27-.96-.3c-.41-.13-.87.06-.99.51l-1.94,7.34c-.09.33-.03.62.24.84.21.17.59.2.86-.03l4.63-3.89c.2-.17.31-.35.37-.59l.61-2.35c.1-.37-.15-.73-.5-.84l-.99-.3.33-1.25-.52-.16-.81-.23v-.02ZM955.17,561.53l-2.9,2.45.91-3.54.3-1.19,2.13.63-.45,1.64h.01Z"/>
      <path class="st1" d="M954.68,556.72s-.06.05-.07.09l.81.23.52.16-.04-.12c-.18-.09-1.02-.33-1.22-.36h0Z"/>
      <path class="st1" d="M975.77,540c.15-1.4.14-2.77-.1-4.17-.84-5.2-4.2-9.78-8.79-12.32-1.01-.55-2.03-.99-3.12-1.35-.63-.21-1.21-.34-1.85-.47-3.18-.65-6.49-.42-9.54.72-4,1.51-7.23,4.53-8.95,8.43-1.22,2.75-1.66,5.86-1.19,8.85.33,2.09,1.04,4.05,2.06,5.91.4.73.81,1.38,1.35,2.01,1.4,1.62,3.36,2.56,5.5,2.61.65,1.12,1.48,1.98,2.77,2.2.06,0,.14-.02.19,0,.28.13.99,2.5,3.97,3.76,1.93.82,4.28.76,6.16-.24l6.26-3.34c1.61-.84,2.79-2.22,3.31-3.95.28-.93.32-1.87.22-2.84.97-1.82,1.53-3.78,1.75-5.81h0ZM971.89,543.93c.64,1.08.95,2.31.74,3.56-.24,1.45-.99,2.89-2.33,3.61l-6.58,3.56c-2.17,1.17-4.83.9-6.74-.72.84.09,1.57.03,2.3-.29.24-.11.43-.25.5-.49.07-.26,0-.51-.21-.77l1.43-.79.46.75c.2.33.64.34.91.17.32-.19.43-.59.23-.92l-.39-.64,1.26-.68.48.77c.18.29.6.32.87.16.28-.17.46-.54.29-.84l-.43-.75,1.46-.77c.14.28.31.5.58.58.28.08.51-.05.77-.22,1.39-.94,1.98-2.7,1.3-4.27,1.2-1.12,1.07-2.74.37-4.18l.64-.33,2.08,3.51h.01ZM955.99,551.91l1.27-.7.82,1.35c-.79.17-1.52-.11-2.09-.65h0ZM967.08,547.75l-.82-1.38,1.34-.72c.23.76.05,1.54-.52,2.1ZM967.91,539.87c-.32.17-.42.58-.27.91l.52,1.15c.25.55.2,1.73-.47,2.09l-2.67,1.44c-.4.21-.51.67-.28,1.05l.68,1.13-1.44.77-.4-.67c-.19-.31-.56-.43-.88-.28-.32.14-.48.53-.34.88l.41.72-1.27.69-.43-.72c-.19-.31-.61-.37-.9-.2-.3.17-.46.57-.28.89l.39.7-1.41.76-.73-1.21c-.18-.29-.59-.46-.92-.28l-2.13,1.13c-.54.29-1.07.33-1.61,0-1.3-.8-1.09-2.01-2.04-1.99-.74.02-1.46-.06-2.17-.32-1.24-.46-2.28-1.27-3.04-2.38-1.18-1.72-2-3.66-2.45-5.69-.96-4.32.07-8.68,2.83-12.19l1.48,2.44c.33.54.93.76,1.48.69.63-.08,1.14-.51,1.3-1.12.11-.4.02-.81-.18-1.18l-.8-1.39c-.21-.36-.06-.82.28-1.02.35-.2.79-.08,1.02.29l2.17,3.58c.29.47.69.82,1.24.89.59.07,1.16-.21,1.47-.73.27-.45.3-1.06,0-1.58l-1.65-2.81c-.22-.38-.19-.83.17-1.07s.84-.13,1.08.27l1.83,2.99c.27.43.74.72,1.24.73.74.02,1.41-.53,1.56-1.24.07-.33,0-.69-.17-.98l-1.62-2.85c-.14-.25-.11-.54.01-.74.15-.25.42-.36.71-.34.32.03.53.25.7.52.34.55.91.87,1.48.81.66-.07,1.2-.48,1.39-1.12,3.35.96,6.24,2.97,8.38,5.7,1.47,1.88,2.49,4.01,2.97,6.34.59,2.84.34,5.75-.76,8.47l-2.55-4.31c.66-1.08,1-2.28,1-3.54s-.32-2.42-.93-3.51c-.21-.37-.64-.44-.96-.24-.36.22-.42.62-.21,1,1.03,1.82.93,3.99-.21,5.76l-1.64.9h.02Z"/>
      <path class="st1" d="M974.11,545.83c.85-1.66,1.56-3.61,1.72-5.48.01-.12-.03-.24-.06-.35-.22,2.03-.78,3.99-1.75,5.81.1.97.06,1.91-.22,2.84.03-.03.07-.05.1-.08.33-.38.29-2.18.22-2.73h0Z"/>
      <path class="st1" d="M943.42,530.84s-.09.08-.13.12-.07.08-.09.13c-1.08,2.46-1.52,5.64-1.12,8.3,0,.05.03.1.06.15.03.05.06.1.09.15-.47-2.99-.03-6.1,1.19-8.85h0Z"/>
      <path class="st1" d="M963.76,522.16c1.08.36,2.11.8,3.12,1.35-.08-.1-.16-.2-.27-.26-1.12-.67-3.15-1.42-4.45-1.62-.04,0-.08,0-.12.01-.04,0-.08.03-.13.04.64.13,1.22.26,1.85.47h0Z"/>
      <path class="st1" d="M954.09,552.43h-.19c.06.05.12.1.19.15.86,1.6,2.04,2.85,3.74,3.62.03.01.06.01.1,0,.04,0,.08-.01.12-.02-2.98-1.26-3.69-3.63-3.97-3.76h.01Z"/>
      <path class="st1" d="M968.05,529.94c-.12-.32-.49-.59-.86-.43-.51.22-1.02.32-1.55.21-.73-.15-1.35-.58-1.74-1.23-.21-.35-.67-.43-.99-.21-.33.23-.39.65-.17.99,1.08,1.66,3.14,2.38,4.91,1.54.35-.17.52-.54.39-.87h0Z"/>
      <path class="st1" d="M955.92,533.94c.09-.37-.21-.73-.54-.8-.34-.07-.69.1-.8.47-.19.64-.65,1.07-1.25,1.32-.55.23-1.13.2-1.71.08-.36-.07-.69.23-.74.56-.05.32.13.68.48.78,1.95.53,4.09-.5,4.55-2.41h.01Z"/>
      <path class="st1" d="M959.38,533.69c-1.98,1.18-2.63,3.75-1.45,5.74s3.75,2.63,5.74,1.45,2.63-3.75,1.45-5.74-3.75-2.63-5.74-1.45ZM962.85,539.78c-1.51.67-3.32,0-3.96-1.53-.54-1.29-.02-2.76,1.22-3.39.31-.16.68,0,.84.24.2.29.15.68-.15.9-.52.36-.82.96-.66,1.61.12.48.45.83.88,1.02.41.18.88.14,1.32-.06.35-.15.74.01.88.33.15.34,0,.73-.37.89h0Z"/>
      <path class="st1" d="M955.15,540.59c-1.17-1.96-3.72-2.61-5.68-1.43s-2.61,3.72-1.43,5.68,3.72,2.61,5.68,1.43,2.61-3.72,1.43-5.68ZM953.06,545.11c-1.43.76-3.21.19-3.96-1.22-.66-1.25-.28-2.75.91-3.47.33-.2.7-.19.94.08.22.26.26.74-.06.95-.74.48-.95,1.43-.38,2.15.48.6,1.21.72,1.87.4.31-.15.66-.03.84.23.17.25.18.71-.15.89h0Z"/>
      <path class="st1" d="M958.5,542c-.23-.12-.49-.13-.69-.01-.17.1-.36.31-.37.55l-.17,4.04c-.01.26.08.49.3.65.13.1.39.21.6.1l3.88-2.05c.28-.15.42-.33.44-.59.01-.22-.08-.51-.31-.64l-3.68-2.04h0ZM958.71,545.47l.07-1.75,1.55.86-1.63.88h.01Z"/>
    </g>
  </g>
</svg>